<svg width="699" height="676" viewBox="0 0 699 676" fill="none" xmlns="http://www.w3.org/2000/svg">
<path fill-rule="evenodd" clip-rule="evenodd" d="M617.697 270.988C647.974 332.213 673.226 423.774 624.018 486.027C577.335 545.086 483.956 546.876 406.198 565.672C346.958 579.992 287.822 595.265 233.777 580.358C177.468 564.826 126.638 533.457 111.412 484.361C96.7382 437.047 135.26 387.386 158.548 337.786C185.584 280.204 174.301 141.578 237.085 108.202C304.174 72.5374 426.462 118.403 493.448 137.592C562.894 157.485 589.441 213.847 617.697 270.988Z" fill="#44AD4E" fill-opacity="0.2"/>
<g clip-path="url(#clip0_804_5780)">
<path d="M308.019 444.7L221.41 484.925C215.364 487.733 208.196 485.122 205.394 479.095L111.524 277.167C108.722 271.14 111.354 263.985 117.392 261.177L204.008 220.952C210.054 218.144 217.222 220.755 220.025 226.782L313.894 428.718C316.697 434.737 314.065 441.9 308.019 444.7Z" fill="#465B65"/>
<path d="M287.388 408.269L207.592 445.323C205.579 446.262 203.187 445.386 202.251 443.382L124.97 277.143C124.034 275.132 124.916 272.749 126.929 271.81L206.725 234.757C208.738 233.818 211.13 234.694 212.067 236.698L289.347 402.929C290.276 404.948 289.401 407.331 287.388 408.269Z" fill="white"/>
<path d="M256.951 457.547C262.717 457.28 267.183 452.399 266.926 446.645C266.67 440.891 261.788 436.443 256.022 436.71C250.256 436.977 245.79 441.858 246.046 447.612C246.303 453.366 251.185 457.814 256.951 457.547Z" stroke="white" stroke-miterlimit="10"/>
<path d="M226.077 302.522L166.261 330.298L145.298 285.206L205.114 257.43L226.077 302.522Z" stroke="#144460" stroke-miterlimit="10"/>
<path d="M174.554 346.336C194.495 337.074 214.429 327.821 234.37 318.56" stroke="#144460" stroke-miterlimit="10"/>
<path d="M185.715 370.341C205.656 361.079 225.589 351.826 245.531 342.564" stroke="#144460" stroke-miterlimit="10"/>
<path d="M180.156 358.382C200.098 349.12 220.031 339.867 239.972 330.605" stroke="#144460" stroke-miterlimit="10"/>
<path d="M191.459 382.703C211.401 373.442 231.334 364.188 251.276 354.927" stroke="#144460" stroke-miterlimit="10"/>
<path d="M266.79 391.049L207.701 418.486L202.631 407.576L261.719 380.139L266.79 391.049Z" fill="white" stroke="#144460" stroke-miterlimit="10"/>
<path d="M172.22 287.009C171.044 296.971 169.876 306.942 168.7 316.905C177.45 312.113 186.207 307.322 194.957 302.538C187.383 297.359 179.801 292.188 172.22 287.009Z" fill="#44AD4E"/>
<path d="M192.635 287.574C191.677 293.578 190.72 299.589 189.762 305.592C196.351 302.28 202.94 298.967 209.529 295.654C203.898 292.964 198.266 290.273 192.635 287.574Z" fill="#44AD4E"/>
<path d="M183.217 284.722C185.355 284.722 187.089 282.732 187.089 280.278C187.089 277.824 185.355 275.834 183.217 275.834C181.079 275.834 179.345 277.824 179.345 280.278C179.345 282.732 181.079 284.722 183.217 284.722Z" fill="#44AD4E"/>
<path d="M647.822 413.005H369.551C364.225 413.005 359.903 408.054 359.903 401.954V189.723C359.903 183.623 364.225 178.672 369.551 178.672H647.822C653.147 178.672 657.469 183.623 657.469 189.723V401.954C657.469 408.061 653.154 413.005 647.822 413.005Z" fill="#465B65"/>
<path d="M647.517 202.677H370.85V377.569H647.517V202.677Z" fill="white"/>
<path d="M489.703 296.215L403.287 295.989L402.478 222.114L488.894 222.34L489.703 296.215Z" stroke="#144460" stroke-miterlimit="10"/>
<path d="M532.109 228.765C560.915 228.886 589.72 229.015 618.525 229.136" stroke="#144460" stroke-miterlimit="10"/>
<path d="M532.109 249.788C560.915 249.909 589.72 250.039 618.525 250.16" stroke="#144460" stroke-miterlimit="10"/>
<path d="M532.109 267.306C560.915 267.427 589.72 267.556 618.525 267.677" stroke="#144460" stroke-miterlimit="10"/>
<path d="M532.109 288.338C560.915 288.459 589.72 288.588 618.525 288.71" stroke="#144460" stroke-miterlimit="10"/>
<path d="M558.127 353.163L472.766 353.89L472.421 336.025L557.782 335.29L558.127 353.163Z" fill="white" stroke="#144460" stroke-miterlimit="10"/>
<path d="M478.332 493.602C503.097 493.99 527.862 494.378 552.626 494.774C546.523 467.52 540.413 440.259 534.31 413.005C522.096 413.005 509.883 413.005 497.67 413.005C491.221 439.863 484.773 466.737 478.332 493.602Z" fill="#465B65"/>
<path d="M433.585 242.209C427.953 252.98 422.322 263.758 416.69 274.529C428.186 274.262 439.688 273.987 451.184 273.721C445.32 263.217 439.456 252.713 433.585 242.209Z" fill="#44AD4E"/>
<path d="M458.765 249.675C454.365 257.69 449.958 265.705 445.559 273.721C454.478 273.721 463.39 273.721 472.309 273.721C467.789 265.705 463.277 257.69 458.765 249.675Z" fill="#44AD4E"/>
<path d="M448.016 251.906C450.154 251.906 451.887 249.916 451.887 247.462C451.887 245.007 450.154 243.018 448.016 243.018C445.877 243.018 444.144 245.007 444.144 247.462C444.144 249.916 445.877 251.906 448.016 251.906Z" fill="#44AD4E"/>
<g filter="url(#filter0_d_804_5780)">
<path d="M145.742 109.497C172.724 109.901 199.707 110.296 226.689 110.7C242.464 97.8937 243.302 74.0175 233.735 63.2146C225.907 54.3751 210.399 53.4944 198.538 64.0226C193.688 53.3005 182.763 49.115 174.604 53.5186C168.163 57.0011 164.15 65.4608 164.84 74.5427C156.125 68.6362 144.848 72.0783 139.935 81.7742C135.232 91.05 137.696 103.364 145.742 109.497Z" fill="white"/>
</g>
<path d="M638.934 493.969C630.177 493.969 621.42 493.969 612.67 493.969C609.693 474.27 606.715 454.571 603.737 434.88H647.34C644.538 454.571 641.736 474.27 638.934 493.969Z" fill="#EBEBEB"/>
<path d="M624.221 372.769C624.165 378.603 625.882 384.598 622.644 390.86C620.722 394.585 618.582 395.724 616.865 397.494C613.338 401.13 611.846 410.721 620.539 436.689C624.39 436.487 628.247 436.285 632.098 436.083C633.78 428.682 636.033 417.661 637.877 404.127C638.652 398.415 645.55 347.753 638.926 345.637C635.125 344.416 624.355 358.484 624.221 372.769Z" fill="#44AD4E"/>
<path d="M635.52 357.393C636.097 363.994 635.893 370.716 634.95 377.302C634.464 380.59 633.781 383.854 632.901 387.046C632 390.23 630.916 393.332 629.881 396.411C627.755 402.535 626.263 408.894 625.58 415.415C624.89 421.935 624.911 428.545 625.51 435.106L624.552 434.968L626.34 430.031L628.149 425.103C629.374 421.83 630.578 418.542 631.838 415.277C630.824 418.647 629.747 421.992 628.699 425.353L627.094 430.379L625.467 435.388L624.778 437.505L624.503 435.243C623.708 428.634 623.567 421.895 624.214 415.237C624.552 411.908 625.073 408.603 625.812 405.355C626.566 402.115 627.53 398.94 628.607 395.845C629.684 392.75 630.817 389.72 631.747 386.61C632.676 383.499 633.436 380.332 633.999 377.1C635.161 370.652 635.654 364.026 635.52 357.393Z" fill="#144460"/>
<path d="M646.811 437.894C632.626 437.894 618.442 437.894 604.257 437.894C604.081 436.892 603.905 435.882 603.729 434.88C606.573 434.88 609.424 434.88 612.268 434.88C623.954 434.88 635.639 434.88 647.332 434.88C647.163 435.882 646.987 436.884 646.811 437.894Z" fill="#DBDBDB"/>
<path d="M618.216 401.412C618.308 403.012 618.526 404.555 618.829 406.05C618.998 406.794 619.16 407.537 619.399 408.248C619.617 408.967 619.864 409.67 620.159 410.349C620.715 411.73 621.447 412.999 622.243 414.235C622.644 414.849 623.088 415.431 623.566 415.989C624.017 416.578 624.524 417.104 625.03 417.661L624.995 417.726C622.658 416.021 620.736 413.565 619.533 410.696C618.336 407.82 617.864 404.564 618.153 401.404L618.216 401.412Z" fill="#144460"/>
<path d="M621.595 493.969C629.304 480.701 637.005 467.434 644.713 454.175C642.784 467.442 640.862 480.709 638.934 493.969C633.154 493.969 627.375 493.969 621.595 493.969Z" fill="#DBDBDB"/>
<path d="M587.486 461.5C586.939 462.336 586.08 463.597 584.93 465.021C581.954 468.706 580.73 468.895 578.334 471.809C576.302 474.285 573.951 477.14 574.076 480.863C574.15 483.065 575.055 484.803 575.778 485.894C574.059 487.592 573.632 490.499 574.714 492.681C575.881 495.04 578.504 495.974 580.673 494.694C581.891 495.445 584.839 497.013 588.755 496.706C592.893 496.379 595.739 494.151 596.837 493.184C598.442 494.524 603.178 498.084 609.177 497.209C617.219 496.033 625.927 487.115 624.709 475.833C623.673 466.243 615.881 458.841 607.902 459.488C600.394 460.095 596.114 467.543 595.562 468.542C595.494 467.66 595.369 466.641 595.135 465.524C594.891 464.355 594.583 463.349 594.282 462.506C592.722 464.518 591.163 466.53 589.603 468.542C588.903 466.19 588.197 463.845 587.486 461.5Z" fill="#415465"/>
<path d="M576.85 475.075C576.895 475.826 577.106 476.408 577.47 476.846C577.834 477.283 578.324 477.545 578.978 477.59C578.717 477.832 578.352 477.917 577.999 477.858C577.647 477.806 577.311 477.59 577.055 477.296C576.81 476.989 576.645 476.597 576.611 476.192C576.571 475.794 576.645 475.382 576.85 475.075Z" fill="white"/>
<path d="M582.382 479.099C582.883 479.569 583.413 479.948 583.982 480.164C584.545 480.373 585.143 480.412 585.718 480.288C586.292 480.171 586.85 479.89 587.357 479.511C587.869 479.132 588.324 478.642 588.763 478.1C588.29 479.478 587.18 480.634 585.82 480.935C585.148 481.079 584.426 480.994 583.811 480.641C583.196 480.295 582.701 479.746 582.382 479.099Z" fill="white"/>
<path d="M586.635 471.56C586.982 470.861 587.443 470.319 587.938 469.809C588.439 469.313 588.969 468.856 589.617 468.542C589.27 469.241 588.809 469.783 588.314 470.293C587.813 470.789 587.284 471.247 586.635 471.56Z" fill="white"/>
<path d="M575.574 483.124C575.767 483.386 576.007 483.503 576.189 483.425C576.376 483.366 576.524 483.19 576.598 482.98L577.099 483.248C577.048 483.405 577.025 483.595 577.031 483.751C577.048 483.908 577.088 484.052 577.179 484.183C577.361 484.45 577.703 484.62 578.118 484.633C577.788 484.934 577.236 484.953 576.843 484.588C576.65 484.405 576.502 484.124 576.479 483.83C576.445 483.536 576.49 483.261 576.593 483L577.094 483.268C576.929 483.634 576.581 483.908 576.206 483.889C576.024 483.875 575.841 483.777 575.733 483.627C575.625 483.47 575.58 483.294 575.574 483.124Z" fill="white"/>
<path d="M579.825 483.627C581.334 483.542 582.831 483.647 584.322 483.803C585.813 483.98 587.293 484.208 588.761 484.633C587.247 484.725 585.756 484.614 584.265 484.457C582.779 484.28 581.294 484.052 579.825 483.627Z" fill="white"/>
<path d="M579.825 484.633C581.129 485.071 582.358 485.691 583.565 486.351C584.766 487.03 585.95 487.756 587.059 488.657C585.756 488.219 584.527 487.599 583.32 486.939C582.119 486.259 580.935 485.541 579.825 484.633Z" fill="white"/>
<path d="M579.404 485.639C580.753 486.619 581.994 487.742 583.206 488.912C584.407 490.094 585.579 491.309 586.638 492.681C585.289 491.708 584.048 490.578 582.836 489.408C581.635 488.232 580.463 487.011 579.404 485.639Z" fill="white"/>
<path d="M575.997 486.142C576.737 486.723 577.437 487.233 578.205 487.566C578.974 487.912 579.782 488.069 580.675 488.154C579.856 488.591 578.86 488.552 578 488.173C577.146 487.788 576.401 487.069 575.997 486.142Z" fill="white"/>
<path d="M582.381 489.16C581.738 489.095 581.123 489.252 580.622 489.598C580.121 489.944 579.734 490.467 579.569 491.087C579.387 491.702 579.41 492.394 579.603 493.028C579.797 493.668 580.167 494.243 580.685 494.694C580.059 494.491 579.501 493.936 579.199 493.23C578.881 492.525 578.812 491.662 579.034 490.885C579.256 490.101 579.785 489.454 580.429 489.147C581.055 488.827 581.795 488.834 582.381 489.16Z" fill="white"/>
<path d="M593.448 473.069C593.914 472.325 594.341 471.658 594.683 470.913C595.036 470.175 595.292 469.398 595.577 468.542C595.747 469.444 595.565 470.404 595.184 471.22C594.791 472.031 594.193 472.73 593.448 473.069Z" fill="white"/>
<path d="M617.272 484.633C616.19 486.593 614.682 488.285 612.855 489.369C611.011 490.441 608.831 490.656 606.81 490.075C605.797 489.761 604.847 489.108 604.164 488.167C603.475 487.233 603.071 486.07 602.849 484.907C602.405 482.575 602.587 480.19 602.251 477.969C602.086 476.878 601.711 475.794 600.891 475.297C600.094 474.775 599.07 474.866 598.159 475.212C597.226 475.559 596.4 476.166 595.826 477.061C595.245 477.95 594.887 479.021 594.67 480.125C594.46 481.236 594.386 482.386 594.391 483.535C594.403 484.685 594.488 485.835 594.716 486.959C595.143 489.206 596.025 491.349 597.277 493.178C595.928 491.44 594.972 489.297 594.448 487.037C594.186 485.9 594.073 484.718 594.033 483.548C593.999 482.372 594.05 481.19 594.243 480.027C594.437 478.864 594.795 477.708 595.433 476.721C596.053 475.728 597.004 475.016 597.994 474.644C598.973 474.259 600.151 474.108 601.159 474.742C601.654 475.042 602.058 475.539 602.308 476.094C602.57 476.65 602.718 477.244 602.809 477.839C603.139 480.204 602.94 482.542 603.35 484.77C603.549 485.874 603.919 486.939 604.534 487.788C605.154 488.638 605.997 489.258 606.93 489.578C608.814 490.179 610.937 490.049 612.73 489.069C614.551 488.128 616.088 486.514 617.272 484.633Z" fill="white"/>
<path d="M575.573 481.112C574.566 480.38 573.684 479.498 572.824 478.583C571.976 477.656 571.162 476.689 570.468 475.578C571.475 476.31 572.357 477.192 573.217 478.106C574.059 479.041 574.873 480.007 575.573 481.112Z" fill="#E6E6E6"/>
<path d="M575.148 482.118C574.078 481.941 573.065 481.576 572.068 481.164C571.078 480.733 570.105 480.262 569.188 479.603C570.259 479.779 571.272 480.145 572.268 480.556C573.258 480.988 574.231 481.458 575.148 482.118Z" fill="#E6E6E6"/>
<path d="M575.147 483.124C574.026 483.463 572.893 483.607 571.761 483.698C570.628 483.77 569.49 483.796 568.34 483.626C569.461 483.287 570.594 483.143 571.727 483.052C572.859 482.98 573.998 482.954 575.147 483.124Z" fill="#E6E6E6"/>
<path d="M608.336 462.506C606.947 463.715 605.587 463.212 605.359 464.015C605.109 464.897 606.389 466.766 607.915 467.033C609.446 467.301 609.975 465.701 613.231 463.767C615.587 462.362 616.577 462.441 616.634 461.755C616.754 460.259 612.206 457.613 610.254 459.24C609.281 460.037 609.651 461.363 608.336 462.506Z" fill="white"/>
<path d="M602.53 477.329C602.018 477.107 599.274 481.144 600.35 483.679C600.913 485.005 602.496 485.848 603.014 485.391C603.082 485.325 603.253 485.136 603.15 483.679C603.031 481.902 602.723 481.295 602.587 479.857C602.427 478.107 602.735 477.421 602.53 477.329Z" fill="white"/>
<path d="M613.651 473.317C612.222 473.905 611.101 475.565 611.095 477.342C611.095 480.458 614.545 481.732 614.926 481.869C616.451 482.405 618.449 482.281 618.756 481.366C619.035 480.523 617.612 479.811 617.481 477.845C617.379 476.296 618.204 475.806 617.908 474.827C617.499 473.481 615.381 472.605 613.651 473.317Z" fill="white"/>
<path d="M579.188 473.319C579.649 474.135 581.248 474.109 581.743 473.319C581.908 473.051 581.948 472.731 581.743 471.306C581.459 469.32 581.237 467.785 580.89 467.785C580.651 467.785 580.616 468.51 580.036 470.3C579.364 472.397 578.932 472.855 579.188 473.319Z" fill="white"/>
<path d="M295.083 278.035C297.304 286.028 301.586 298.038 310.353 310.374C311.896 312.538 317.434 320.036 332.055 332.632C346.61 345.171 352.717 346.636 367.952 359.105C376.758 366.319 383.319 372.836 387.279 376.966C400.483 377.023 413.694 377.081 426.898 377.139C414.799 362.922 404.486 350.942 396.328 341.453C392.853 337.414 390.101 334.509 385.863 330.903C379.056 325.105 374.118 322.699 368.933 319.517C360.031 314.049 359.532 311.639 341.946 296.776C336.589 292.244 328.863 285.802 319.291 278.133C315.974 278.66 312.083 279.047 307.725 279.06C302.914 279.08 298.646 278.633 295.083 278.035Z" fill="#FFCABA"/>
<path d="M283.059 280.084C279.007 303.841 279.815 308.985 282.821 319.958C285.294 328.989 284.158 325.927 285.294 334.133C285.804 337.844 288.688 345.924 287.58 347.85C276.768 352.053 274.306 355.319 262.02 361.883C254.11 366.107 246.814 370.43 240.133 374.716C247.104 383.634 254.067 392.553 261.038 401.471C274.837 394.785 274.872 391.455 283.059 386.715C297.326 378.455 315.163 367.326 322.822 353.76C327.948 344.685 326.335 338.147 325.302 335.848C324.99 335.151 321.302 326.703 321.302 326.703C320.259 324.694 318.488 319.958 318.488 311.271C315.719 306.621 316.729 311.271 314.443 298.697C309.723 290.742 309.875 284.597 307.267 280.19C303.95 280.717 300.059 281.104 295.701 281.117C290.89 281.12 286.622 280.673 283.059 280.084Z" fill="#FFCABA"/>
<path d="M301.09 189.173C302.467 190.609 302.69 194.965 303.145 203.686C303.332 207.314 303.316 209.043 302.305 210.954C300.715 213.953 297.783 215.322 296.236 215.905C297.148 217.969 298.061 220.034 298.966 222.09C298.891 222.526 298.702 223.317 298.116 224.09C297.279 225.201 296.169 225.576 295.691 225.736C293.732 226.374 291.972 225.703 291.125 225.377C288.558 224.396 287.151 222.45 286.597 221.575C286.671 219.394 286.477 217.591 286.321 216.274C286.212 215.32 286.007 214.212 285.656 213.006C285.21 211.485 284.65 210.214 284.112 209.21C283.553 209.45 282.476 209.801 281.338 209.449C278.972 208.719 277.346 205.278 278.642 202.803C279.417 201.32 281.119 200.438 282.97 200.39C281.56 195.649 283.474 190.526 287.634 187.894C292.312 184.917 298.233 186.195 301.09 189.173Z" fill="#FFCABA"/>
<path d="M288.99 193.968C289.679 193.608 290.682 193.37 290.851 193.653C291.036 193.961 290.247 194.895 289.34 195.376C288.651 195.736 287.647 195.974 287.479 195.691C287.286 195.375 288.074 194.449 288.99 193.968Z" fill="#144460" stroke="#144460" stroke-width="0.7" stroke-miterlimit="10"/>
<path d="M303.593 191.971C305.021 190.879 303.453 183.349 297.982 180.635C294.061 178.687 288.939 179.61 285.035 183.002C281.973 182.585 279.744 183.05 278.563 183.782C269.291 189.531 273.74 196.79 275.007 206.678C275.518 213.685 271.401 218.762 271.912 225.769C277.036 224.442 282.168 223.123 287.292 221.796C287.466 217.135 286.599 213.665 285.72 211.285C284.322 207.522 282.575 205.632 283.243 202.71C283.795 200.28 285.453 200.19 285.78 197.55C286.183 194.311 284.273 192.873 285.09 190.905C286.054 188.582 289.841 187.815 292.235 187.793C298.752 187.716 302.23 193.016 303.593 191.971Z" fill="#144460" stroke="#144460" stroke-miterlimit="10"/>
<path d="M298.286 192.684C297.51 192.599 296.49 192.748 296.44 193.08C296.382 193.435 297.463 194.005 298.482 194.115C299.257 194.199 300.277 194.05 300.327 193.719C300.385 193.363 299.312 192.793 298.286 192.684Z" fill="#144460" stroke="#144460" stroke-width="0.7" stroke-miterlimit="10"/>
<path d="M290.628 198.379C290.159 198.385 289.817 198.901 289.71 199.272C289.456 200.168 290.227 201.286 290.769 201.248C291.335 201.202 291.915 199.847 291.474 198.997C291.458 198.965 291.137 198.373 290.628 198.379Z" fill="#144460" stroke="#144460" stroke-width="0.7" stroke-miterlimit="10"/>
<path d="M297.909 197.603C297.44 197.593 297.066 198.028 296.935 198.391C296.632 199.254 297.443 200.405 297.993 200.367C298.576 200.321 299.172 198.91 298.699 198.116C298.683 198.083 298.386 197.613 297.909 197.603Z" fill="#144460" stroke="#144460" stroke-width="0.7" stroke-miterlimit="10"/>
<path d="M294.653 202.437C294.579 202.663 294.53 202.962 294.65 203.245C294.954 203.981 296.078 203.914 296.213 204.415C296.277 204.658 296.113 205.053 295.189 205.712" stroke="#144460" stroke-width="0.7" stroke-miterlimit="10"/>
<path d="M291.496 208.871C291.899 209.107 293.069 209.726 294.662 209.58C296.142 209.449 297.14 208.726 297.513 208.429" stroke="#144460" stroke-width="0.7" stroke-miterlimit="10"/>
<path d="M305.36 222.594C305.085 222.48 303.899 221.942 302.21 221.619C301.241 221.437 300.376 221.369 299.665 221.35C298.449 223.768 296.025 225.349 293.34 225.467C289.305 225.635 287.022 222.401 286.886 222.207C285.049 222.627 283.211 223.055 281.382 223.476C278.973 230.842 276.682 238.872 274.663 247.533C271.145 262.659 269.112 270.787 268.837 281.92C268.522 294.855 270.646 304.617 272.739 314.257C275.513 327.036 279.211 337.459 282.307 345.003C309.573 335.426 336.831 325.849 364.096 316.272C349.33 303.821 334.555 291.362 319.789 278.911C318.779 273.242 317.237 265.163 315.04 255.458C313.12 246.973 311.181 239.362 311.165 239.37C311.156 239.37 311.871 242.379 315.04 255.458C333.615 249.366 345.821 240.798 353.133 234.616C358.197 230.339 363.243 224.754 373.438 213.696C381.335 205.142 387.713 197.882 392.126 192.77C385.144 186.275 378.171 179.781 371.189 173.287C368.619 176.637 349.99 200.812 333.816 214.332C333.816 214.332 325.884 221.876 315.99 223.142C313.805 223.415 308.047 223.737 305.36 222.594Z" fill="#44AD4E"/>
<path d="M285.851 222.211C288.454 226.101 292.707 227.832 296.076 226.692C298.246 225.958 299.49 224.21 300.02 223.323" stroke="#144460" stroke-width="0.7" stroke-miterlimit="10"/>
<path d="M309.944 237.425C310.751 239.666 311.533 242.037 312.266 244.529C313.692 249.408 314.715 254.026 315.44 258.279" stroke="#144460" stroke-width="0.7" stroke-miterlimit="10"/>
<path d="M280.072 204.982C280.951 205.511 281.83 206.04 282.709 206.57C282.453 205.938 282.197 205.307 281.941 204.667" stroke="#144460" stroke-miterlimit="10"/>
<path d="M296.228 215.905C295.45 216.192 294.333 216.511 292.958 216.569C290.928 216.649 289.33 216.133 288.426 215.758C289.159 216.375 290.835 217.611 293.308 217.977C294.867 218.21 296.17 218.006 296.996 217.807C296.74 217.168 296.484 216.536 296.228 215.905Z" fill="#144460"/>
<path d="M188.323 263.043C185.84 259.453 183.905 256.39 182.556 254.178C176.736 244.667 175.267 240.402 174.953 236.28C174.762 233.766 174.969 230.883 176.828 229C177.088 228.735 178.16 227.648 178.919 227.951C179.993 228.376 179.406 231.233 179.697 234.903C179.866 237.029 180.332 239.527 181.403 242.287C180.68 239.456 180.246 237.047 179.979 235.26C179.437 231.646 179.499 230.191 180.41 229.113C180.483 229.024 181.58 227.776 182.5 228.063C183.59 228.407 183.508 230.637 184.131 236.094C184.606 240.306 185.041 242.392 184.993 242.4C184.952 242.408 184.861 241.163 184.131 236.094C183.77 233.547 183.518 231.954 184.478 230.593C184.771 230.182 185.3 229.433 185.923 229.468C188.372 229.6 189.686 241.669 189.653 241.669C189.645 241.669 189.511 240.998 189.25 239.663C189.123 239.041 188.775 237.213 188.518 235.006C188.05 230.988 188.402 230.093 188.866 229.505C189.174 229.11 189.508 228.676 189.953 228.661C192.492 228.543 195.231 242.008 195.174 242.024C195.15 242.032 194.371 238.95 193.872 236.645C192.976 232.513 193.181 231.899 193.497 231.707C194.194 231.282 195.846 232.654 196.554 233.385C198.035 234.91 200.424 237.805 202.892 242.971C198.019 249.648 193.171 256.341 188.323 263.043Z" fill="#FFCABA"/>
<path d="M188.323 263.042L184.523 257.305L182.604 254.42C181.985 253.448 181.391 252.467 180.797 251.479C179.625 249.502 178.486 247.493 177.476 245.421C176.475 243.348 175.578 241.194 175.103 238.914C174.858 237.773 174.717 236.617 174.674 235.462C174.63 234.298 174.684 233.119 174.964 231.972C175.244 230.826 175.774 229.706 176.619 228.845C177.033 228.426 177.479 228.008 178.087 227.76C178.379 227.64 178.799 227.569 179.154 227.797C179.509 228.017 179.629 228.381 179.716 228.68C179.961 229.902 179.859 231.04 179.887 232.188C179.89 233.335 179.933 234.467 180.058 235.598C180.307 237.854 180.879 240.07 181.711 242.191L181.063 242.398C180.483 240.125 180.008 237.82 179.646 235.5C179.473 234.335 179.3 233.171 179.265 231.967C179.26 231.369 179.279 230.747 179.467 230.126C179.64 229.504 180.039 228.916 180.501 228.506C180.964 228.112 181.499 227.654 182.324 227.682C182.728 227.708 183.123 228 183.308 228.308C183.5 228.624 183.58 228.932 183.668 229.231C183.937 230.428 184.013 231.592 184.137 232.756C184.362 235.084 184.618 237.396 184.956 239.7L185.223 241.43C185.271 241.73 185.318 241.988 185.357 242.328L185.357 242.368C185.341 242.328 185.421 242.441 185.234 242.699C185.152 242.868 184.724 242.875 184.588 242.527L184.572 242.47L184.548 242.333L184.517 242.106L184.462 241.67L184 238.201L183.514 234.725C183.382 233.569 183.218 232.291 183.749 231.057C183.879 230.767 184.058 230.469 184.237 230.235C184.416 229.986 184.611 229.736 184.871 229.511C185.123 229.294 185.488 229.053 185.956 229.095C186.425 229.138 186.731 229.414 186.957 229.657C187.407 230.168 187.655 230.735 187.895 231.294C188.119 231.852 188.303 232.427 188.47 232.993C189.107 235.274 189.501 237.595 189.823 239.923L189.932 240.797L189.979 241.233L190.002 241.459L190.009 241.573L190.017 241.661C190.033 241.783 189.902 242 189.773 242.04C189.538 242.16 189.039 241.52 189.265 241.763L188.916 240.025C188.711 238.868 188.547 237.704 188.358 236.548C188.161 235.391 188.012 234.227 187.944 233.039C187.907 232.449 187.893 231.851 187.936 231.237C187.987 230.64 188.079 229.961 188.486 229.397C188.681 229.148 188.844 228.914 189.112 228.673C189.347 228.44 189.817 228.224 190.245 228.355C191.02 228.633 191.349 229.216 191.678 229.718C192.304 230.772 192.728 231.872 193.127 232.989C193.902 235.214 194.499 237.488 195.014 239.776C195.141 240.351 195.268 240.925 195.378 241.499L195.457 241.944C195.449 241.928 195.481 242.009 195.432 242.146C195.375 242.275 195.262 242.347 195.189 242.355C195.092 242.379 194.882 242.281 194.842 242.159C194.794 242.046 194.826 242.111 194.81 242.078L194.778 241.965L194.722 241.747L194.508 240.889C194.23 239.749 193.968 238.616 193.714 237.468C193.469 236.32 193.223 235.179 193.05 234.007C192.972 233.417 192.877 232.842 192.945 232.188C192.962 232.027 193.003 231.841 193.141 231.648C193.304 231.455 193.531 231.383 193.725 231.368C194.121 231.353 194.411 231.5 194.694 231.638C195.783 232.233 196.636 233.093 197.408 233.977C198.189 234.861 198.904 235.802 199.571 236.766C200.905 238.703 202.036 240.769 203.046 242.89L203.102 243.003L203.028 243.1L188.323 263.042ZM188.323 263.042L202.706 242.84L202.689 243.05C201.671 240.953 200.532 238.92 199.198 237.023C198.531 236.075 197.816 235.159 197.043 234.299C196.279 233.439 195.441 232.627 194.465 232.098C194.231 231.976 193.965 231.878 193.771 231.893C193.682 231.901 193.609 231.933 193.585 231.965C193.552 232.013 193.511 232.118 193.503 232.239C193.452 232.748 193.538 233.346 193.625 233.904C193.806 235.044 194.051 236.185 194.313 237.317C194.575 238.449 194.853 239.59 195.139 240.714L195.362 241.556L195.418 241.766L195.45 241.863C195.442 241.847 195.474 241.928 195.434 241.831C195.402 241.733 195.192 241.644 195.111 241.692C195.046 241.708 194.925 241.739 194.868 241.86C194.818 241.981 194.851 242.046 194.843 242.006L194.764 241.593C194.645 241.027 194.518 240.461 194.391 239.895C193.851 237.63 193.263 235.373 192.496 233.188C192.104 232.104 191.681 231.019 191.103 230.063C190.822 229.602 190.444 229.131 190.088 229.025C189.814 228.902 189.424 229.337 189.099 229.796C188.814 230.183 188.723 230.715 188.68 231.273C188.645 231.83 188.659 232.404 188.697 232.978C188.764 234.125 188.921 235.282 189.118 236.422C189.307 237.57 189.472 238.718 189.677 239.858L190.026 241.556C190.259 241.808 189.768 241.216 189.533 241.312C189.404 241.328 189.266 241.529 189.289 241.634C189.289 241.683 189.29 241.618 189.29 241.618L189.282 241.513L189.259 241.303L189.212 240.874L189.103 240.009C188.781 237.713 188.379 235.408 187.758 233.192C187.431 232.116 187.064 230.943 186.421 230.18C186.058 229.791 185.84 229.774 185.451 230.103C185.102 230.425 184.736 230.924 184.54 231.376C184.123 232.319 184.231 233.483 184.364 234.623L184.842 238.092L185.296 241.568L185.35 242.005L185.382 242.215L185.397 242.296C185.397 242.296 185.397 242.304 185.397 242.296C185.27 241.964 184.849 241.986 184.768 242.131C184.581 242.365 184.669 242.462 184.645 242.406L184.645 242.39L184.519 241.557L184.26 239.818C183.931 237.498 183.682 235.162 183.458 232.842C183.333 231.686 183.258 230.506 183.012 229.422C182.94 229.163 182.869 228.896 182.748 228.718C182.628 228.532 182.499 228.45 182.313 228.425C181.933 228.391 181.438 228.696 181.049 229.058C180.635 229.42 180.366 229.839 180.21 230.347C180.062 230.847 180.028 231.413 180.033 231.97C180.061 233.102 180.225 234.258 180.39 235.406C180.736 237.702 181.203 239.983 181.775 242.24L181.128 242.447C180.296 240.278 179.732 237.997 179.5 235.677C179.383 234.521 179.348 233.357 179.353 232.202C179.342 231.062 179.436 229.875 179.23 228.832C179.103 228.306 178.821 228.079 178.335 228.278C177.874 228.462 177.435 228.84 177.046 229.226C176.274 230.007 175.768 231.031 175.497 232.104C174.978 234.283 175.154 236.627 175.581 238.843C176.032 241.075 176.879 243.212 177.841 245.293C178.81 247.366 179.909 249.39 181.048 251.383C181.618 252.379 182.204 253.368 182.798 254.348L184.645 257.241L188.323 263.042Z" fill="#144460"/>
<path d="M280.426 223.924C277.259 223.336 274.437 225.263 273.123 226.186C257.632 237.075 248.051 251.788 238.229 255.122C231.654 257.356 221.092 255.823 203.529 239.619C198.376 247.41 193.216 255.192 188.064 262.983C208.801 282.046 232.803 292.178 248.609 285.064C256.379 281.567 266.762 271.835 268.078 270.605C269.823 268.972 276.376 262.714 282.709 252.892C289.547 242.289 289.355 238.03 289.248 236.761C288.795 231.256 285.298 224.826 280.426 223.924Z" fill="#44AD4E"/>
<path d="M372.23 173.625C374.127 170.603 378.685 163.844 384.483 159.869C387.5 157.798 389.75 157.242 391.68 157.711C392.044 157.801 393.53 158.155 393.656 158.956C393.845 160.096 391.1 161.07 388.107 163.214C386.371 164.459 384.48 166.147 382.659 168.491C384.713 166.407 386.548 164.799 387.943 163.642C390.759 161.311 392.04 160.613 393.429 160.829C393.543 160.846 395.183 161.136 395.405 162.074C395.675 163.182 393.722 164.273 389.365 167.615C386.007 170.194 384.44 171.65 384.408 171.609C384.383 171.577 385.397 170.854 389.365 167.615C391.361 165.992 392.595 164.947 394.26 165.067C394.761 165.102 395.683 165.17 395.971 165.721C397.126 167.883 387.472 175.242 387.44 175.218C387.432 175.21 387.943 174.752 388.95 173.835C389.421 173.409 390.809 172.162 392.561 170.796C395.758 168.322 396.713 168.164 397.456 168.248C397.949 168.307 398.49 168.366 398.739 168.739C400.153 170.854 390.03 180.15 389.99 180.11C389.966 180.093 392.207 177.841 393.928 176.216C397.005 173.321 397.637 173.17 397.967 173.341C398.718 173.724 398.288 175.944 398.106 176.824C397.552 179.561 395.962 184.402 390.605 191.141C384.493 185.313 378.358 179.469 372.23 173.625Z" fill="#FFCABA"/>
<path d="M372.23 173.623C374.144 170.545 376.259 167.58 378.696 164.884C379.915 163.54 381.214 162.261 382.618 161.096C384.03 159.946 385.514 158.862 387.199 158.11C388.042 157.734 388.933 157.447 389.871 157.37C390.809 157.277 391.755 157.435 392.634 157.77C393.062 157.958 393.546 158.162 393.811 158.688C393.947 158.955 393.889 159.303 393.759 159.536C393.636 159.786 393.45 159.955 393.271 160.116C392.541 160.735 391.746 161.168 390.976 161.649C389.42 162.58 387.92 163.567 386.572 164.749C385.217 165.923 383.99 167.242 382.892 168.66L382.449 168.27C384.163 166.524 385.957 164.859 387.84 163.292C388.789 162.512 389.731 161.725 390.833 161.091C391.384 160.778 392 160.506 392.679 160.445C393.375 160.383 394.029 160.556 394.626 160.825C394.933 160.963 395.239 161.151 395.489 161.459C395.746 161.751 395.865 162.236 395.726 162.631C395.603 163.019 395.376 163.292 395.148 163.526C394.929 163.767 394.685 163.976 394.45 164.177C393.492 164.973 392.503 165.68 391.537 166.419C389.591 167.873 387.676 169.367 385.809 170.927L385.111 171.514L384.754 171.811L384.698 171.851L384.665 171.875C384.625 171.899 384.714 171.859 384.56 171.931C384.317 171.963 384.099 171.97 384.044 171.606C384.183 171.13 384.15 171.388 384.174 171.299L384.239 171.243L384.426 171.09L385.854 169.957L388.694 167.659C389.643 166.895 390.553 166.083 391.639 165.401C392.182 165.072 392.798 164.784 393.477 164.69C393.809 164.635 394.173 164.645 394.48 164.67C394.795 164.696 395.127 164.738 395.474 164.852C395.797 164.959 396.224 165.187 396.392 165.648C396.552 166.085 396.469 166.497 396.355 166.812C396.117 167.465 395.743 167.98 395.369 168.488C394.597 169.486 393.728 170.355 392.843 171.208C391.949 172.052 391.024 172.856 390.083 173.644L388.655 174.801L387.925 175.364L387.73 175.508C387.689 175.565 387.414 175.636 387.277 175.531C387.067 175.602 387.192 174.536 387.215 174.916L387.264 174.868L387.353 174.788L387.694 174.474C388.579 173.638 389.528 172.858 390.47 172.07C391.419 171.291 392.328 170.47 393.334 169.756C393.829 169.394 394.34 169.041 394.875 168.712C395.41 168.391 395.969 168.078 396.641 167.912C396.973 167.824 397.369 167.826 397.676 167.876C397.983 167.918 398.331 167.951 398.694 168.147C399.089 168.334 399.313 168.853 399.287 169.232C399.278 169.62 399.163 169.943 399.048 170.249C398.534 171.451 397.761 172.417 397.005 173.392C396.233 174.35 395.412 175.259 394.567 176.152C393.731 177.046 392.862 177.906 391.985 178.759C391.546 179.185 391.1 179.604 390.645 180.014L390.288 180.327C390.288 180.335 390.11 180.456 389.964 180.415C389.811 180.374 389.771 180.349 389.715 180.179C389.651 180.009 389.805 179.8 389.797 179.824L389.822 179.8L389.903 179.711L390.065 179.542L390.715 178.891C392.453 177.177 394.174 175.456 396.097 173.897C396.341 173.704 396.592 173.519 396.86 173.342C397.144 173.19 397.395 172.965 397.905 172.975C398.179 173.009 398.373 173.196 398.485 173.366C398.589 173.544 398.645 173.722 398.677 173.9C398.74 174.239 398.738 174.563 398.721 174.886C398.635 176.146 398.346 177.34 398.01 178.535C396.582 183.28 393.839 187.445 390.815 191.262L390.668 191.447L390.499 191.285L372.23 173.623ZM372.23 173.623L390.767 190.995L390.46 191.018C393.428 187.201 396.098 183.035 397.452 178.395C397.765 177.241 398.037 176.046 398.106 174.875C398.116 174.584 398.109 174.293 398.062 174.043C398.022 173.776 397.878 173.605 397.805 173.605C397.692 173.588 397.392 173.733 397.173 173.885C396.93 174.046 396.694 174.222 396.467 174.407C394.617 175.934 392.903 177.688 391.182 179.394L390.548 180.046L390.394 180.206L390.321 180.279L390.305 180.295C390.28 180.335 390.435 180.142 390.354 179.98C390.274 179.842 390.242 179.81 390.113 179.753C389.984 179.696 389.822 179.8 389.838 179.8L390.162 179.511C390.609 179.1 391.047 178.682 391.486 178.264C392.355 177.419 393.207 176.558 394.036 175.673C394.865 174.788 395.669 173.887 396.425 172.945C397.165 172.002 397.913 171.028 398.354 169.98C398.452 169.721 398.534 169.455 398.535 169.229C398.52 169.011 398.48 168.889 398.311 168.792C398.142 168.694 397.859 168.644 397.568 168.611C397.269 168.569 397.05 168.576 396.791 168.631C395.747 168.918 394.733 169.673 393.768 170.364C392.787 171.062 391.886 171.882 390.952 172.654C390.027 173.434 389.094 174.205 388.209 175.042L387.876 175.347L387.795 175.42L387.763 175.452C387.777 175.832 387.862 174.814 387.684 174.862C387.563 174.748 387.304 174.812 387.28 174.852L387.45 174.723L388.164 174.169L389.576 173.02C390.501 172.24 391.41 171.444 392.287 170.608C393.156 169.771 394.009 168.918 394.733 167.984C395.415 167.115 396.214 165.785 395.228 165.587C394.752 165.447 394.113 165.38 393.603 165.458C393.07 165.529 392.551 165.761 392.057 166.058C391.067 166.667 390.15 167.479 389.193 168.243L386.345 170.533L384.909 171.666L384.738 171.803L384.714 171.819C384.722 171.746 384.673 172.013 384.804 171.553C384.725 171.213 384.547 171.188 384.32 171.219C384.183 171.291 384.288 171.235 384.264 171.243L384.28 171.235L384.312 171.211L384.653 170.93L385.351 170.343C387.226 168.776 389.165 167.281 391.12 165.827C392.093 165.096 393.091 164.389 394.008 163.626C394.438 163.248 394.933 162.822 395.064 162.418C395.203 162.055 394.849 161.674 394.349 161.446C393.84 161.217 393.275 161.069 392.749 161.124C392.215 161.17 391.681 161.394 391.178 161.674C390.165 162.252 389.216 163.023 388.274 163.787C386.4 165.322 384.598 166.954 382.884 168.676L382.441 168.286C383.571 166.845 384.839 165.509 386.234 164.327C387.622 163.137 389.179 162.134 390.744 161.22C391.514 160.755 392.324 160.314 392.981 159.767C393.306 159.486 393.55 159.148 393.414 158.856C393.278 158.548 392.875 158.32 392.487 158.165C391.672 157.847 390.791 157.689 389.918 157.766C389.044 157.835 388.178 158.082 387.36 158.434C385.715 159.138 384.223 160.181 382.803 161.298C381.391 162.423 380.084 163.678 378.841 164.998C376.364 167.662 374.192 170.577 372.23 173.623Z" fill="#144460"/>
<path d="M275.961 224.171C278.231 222.912 279.832 223.503 281.025 224.171C285.074 226.426 283.579 248.4 270.433 268.404" stroke="#144460" stroke-width="0.7" stroke-miterlimit="10"/>
<path d="M240.956 373.175C235.621 376.457 230.286 379.738 224.944 383.028C229.234 391.191 234.217 399.826 240.024 408.739C243.759 414.476 247.52 419.85 251.233 424.851C254.206 423.515 257.172 422.187 260.145 420.85C260.206 419.76 260.262 418.071 260.166 416.002C259.974 411.768 259.358 410.222 259.597 407.338C259.708 405.973 260.04 403.995 261.086 401.616C254.376 392.141 247.666 382.658 240.956 373.175Z" fill="#44AD4E"/>
<path d="M254.766 406.533C255.501 406.738 256.453 407.082 257.461 407.7C259.074 408.693 260.063 409.91 260.609 410.704" stroke="#144460" stroke-miterlimit="10"/>
<path d="M254.639 409.676C255.374 409.881 256.326 410.224 257.334 410.843C258.947 411.828 259.936 413.052 260.483 413.846" stroke="#144460" stroke-miterlimit="10"/>
<path d="M255.328 412.943C256.063 413.149 257.015 413.492 258.023 414.111C259.636 415.103 260.625 416.32 261.172 417.114" stroke="#144460" stroke-miterlimit="10"/>
<path d="M231.244 382.699C239.125 396.082 247.007 409.464 254.889 422.847" stroke="#144460" stroke-miterlimit="10"/>
<path d="M321.894 329.635C323.292 331.661 325.852 335.995 325.883 341.772C325.898 343.97 325.543 347.467 322.6 353.07C317.7 362.389 310.299 368.627 304.727 372.384" stroke="#144460" stroke-width="0.7" stroke-miterlimit="10"/>
</g>
<g filter="url(#filter1_d_804_5780)">
<path d="M596.136 92.7512C554.904 93.2966 513.672 93.8311 472.441 94.3766C459.296 85.7696 456.886 68.3484 464.448 58.3887C472.365 47.96 490.781 46.2909 502.098 58.3887C497.946 38.3603 511.672 19.3136 530.066 16.9355C546.955 14.7538 563.779 27.1243 566.963 45.56C580.28 37.5858 597.513 42.2329 605.021 55.3233C612.207 67.8466 608.442 84.4715 596.136 92.7512Z" fill="white"/>
</g>
<defs>
<filter id="filter0_d_804_5780" x="129.561" y="43.7891" width="126.386" height="82.9111" filterUnits="userSpaceOnUse" color-interpolation-filters="sRGB">
<feFlood flood-opacity="0" result="BackgroundImageFix"/>
<feColorMatrix in="SourceAlpha" type="matrix" values="0 0 0 0 0 0 0 0 0 0 0 0 0 0 0 0 0 0 127 0" result="hardAlpha"/>
<feOffset dx="4" dy="4"/>
<feGaussianBlur stdDeviation="6"/>
<feColorMatrix type="matrix" values="0 0 0 0 0.775 0 0 0 0 0.8515 0 0 0 0 1 0 0 0 0.5 0"/>
<feBlend mode="normal" in2="BackgroundImageFix" result="effect1_dropShadow_804_5780"/>
<feBlend mode="normal" in="SourceGraphic" in2="effect1_dropShadow_804_5780" result="shape"/>
</filter>
<filter id="filter1_d_804_5780" x="452.188" y="8.68652" width="172.46" height="101.69" filterUnits="userSpaceOnUse" color-interpolation-filters="sRGB">
<feFlood flood-opacity="0" result="BackgroundImageFix"/>
<feColorMatrix in="SourceAlpha" type="matrix" values="0 0 0 0 0 0 0 0 0 0 0 0 0 0 0 0 0 0 127 0" result="hardAlpha"/>
<feOffset dx="4" dy="4"/>
<feGaussianBlur stdDeviation="6"/>
<feColorMatrix type="matrix" values="0 0 0 0 0.775 0 0 0 0 0.8515 0 0 0 0 1 0 0 0 0.5 0"/>
<feBlend mode="normal" in2="BackgroundImageFix" result="effect1_dropShadow_804_5780"/>
<feBlend mode="normal" in="SourceGraphic" in2="effect1_dropShadow_804_5780" result="shape"/>
</filter>
<clipPath id="clip0_804_5780">
<rect width="569.258" height="452.663" fill="white" transform="translate(108.116 51.7891)"/>
</clipPath>
</defs>
</svg>
