<svg width="611" height="591" viewBox="0 0 611 591" fill="none" xmlns="http://www.w3.org/2000/svg">
<path fill-rule="evenodd" clip-rule="evenodd" d="M539.792 236.994C566.279 290.555 588.37 370.655 545.322 425.115C504.482 476.781 422.793 478.347 354.768 494.791C302.944 507.318 251.21 520.679 203.93 507.638C154.67 494.05 110.202 466.608 96.8823 423.658C84.0455 382.266 117.745 338.822 138.118 295.43C161.77 245.056 151.899 123.783 206.824 94.5847C265.515 63.3848 372.495 103.509 431.097 120.296C491.85 137.699 515.073 187.006 539.792 236.994Z" fill="#44AD4E" fill-opacity="0.2"/>
<g clip-path="url(#clip0_1121_2379)">
<path d="M235.879 385.96L160.112 421.15C154.823 423.607 148.552 421.322 146.1 416.05L63.981 239.399C61.5295 234.126 63.832 227.867 69.1143 225.41L144.888 190.221C150.177 187.764 156.448 190.048 158.9 195.321L241.019 371.978C243.471 377.244 241.168 383.51 235.879 385.96Z" fill="#465B65"/>
<path d="M217.831 354.09L148.023 386.506C146.262 387.327 144.17 386.561 143.35 384.808L75.7436 239.378C74.9241 237.618 75.6962 235.534 77.4569 234.713L147.265 202.298C149.025 201.477 151.118 202.243 151.937 203.996L219.544 349.418C220.357 351.185 219.591 353.269 217.831 354.09Z" fill="white"/>
<path d="M191.204 397.199C196.248 396.965 200.155 392.695 199.931 387.661C199.706 382.628 195.435 378.736 190.391 378.97C185.347 379.204 181.44 383.474 181.664 388.507C181.889 393.541 186.16 397.432 191.204 397.199Z" stroke="white" stroke-miterlimit="10"/>
<path d="M164.195 261.579L111.866 285.879L93.5273 246.431L145.856 222.132L164.195 261.579Z" stroke="#144460" stroke-miterlimit="10"/>
<path d="M119.121 299.909C136.566 291.807 154.005 283.712 171.45 275.61" stroke="#144460" stroke-miterlimit="10"/>
<path d="M128.885 320.909C146.33 312.807 163.768 304.712 181.213 296.61" stroke="#144460" stroke-miterlimit="10"/>
<path d="M124.021 310.447C141.467 302.345 158.905 294.25 176.35 286.148" stroke="#144460" stroke-miterlimit="10"/>
<path d="M133.91 331.724C151.355 323.622 168.794 315.526 186.239 307.424" stroke="#144460" stroke-miterlimit="10"/>
<path d="M199.811 339.025L148.119 363.028L143.684 353.483L195.376 329.481L199.811 339.025Z" fill="white" stroke="#144460" stroke-miterlimit="10"/>
<path d="M117.079 248.008C116.051 256.724 115.028 265.446 114 274.162C121.655 269.97 129.316 265.779 136.97 261.594C130.344 257.063 123.712 252.539 117.079 248.008Z" fill="#44AD4E"/>
<path d="M134.938 248.503C134.101 253.755 133.263 259.014 132.426 264.266C138.19 261.368 143.954 258.47 149.718 255.572C144.792 253.218 139.865 250.864 134.938 248.503Z" fill="#44AD4E"/>
<path d="M126.7 246.008C128.57 246.008 130.087 244.268 130.087 242.121C130.087 239.973 128.57 238.233 126.7 238.233C124.829 238.233 123.312 239.973 123.312 242.121C123.312 244.268 124.829 246.008 126.7 246.008Z" fill="#44AD4E"/>
<path d="M533.146 358.233H289.708C285.049 358.233 281.268 353.902 281.268 348.565V162.901C281.268 157.564 285.049 153.233 289.708 153.233H533.146C537.805 153.233 541.586 157.564 541.586 162.901V348.565C541.586 353.908 537.81 358.233 533.146 358.233Z" fill="#465B65"/>
<path d="M532.879 174.233H290.844V327.233H532.879V174.233Z" fill="white"/>
<path d="M394.821 256.063L319.222 255.865L318.514 191.237L394.112 191.435L394.821 256.063Z" stroke="#144460" stroke-miterlimit="10"/>
<path d="M431.918 197.055C457.118 197.161 482.317 197.274 507.517 197.38" stroke="#144460" stroke-miterlimit="10"/>
<path d="M431.918 215.447C457.118 215.553 482.317 215.666 507.517 215.772" stroke="#144460" stroke-miterlimit="10"/>
<path d="M431.918 230.772C457.118 230.878 482.317 230.991 507.517 231.097" stroke="#144460" stroke-miterlimit="10"/>
<path d="M431.918 249.171C457.118 249.277 482.317 249.39 507.517 249.496" stroke="#144460" stroke-miterlimit="10"/>
<path d="M454.678 305.882L380.003 306.518L379.701 290.89L454.376 290.246L454.678 305.882Z" fill="white" stroke="#144460" stroke-miterlimit="10"/>
<path d="M384.873 428.741C406.538 429.081 428.203 429.42 449.867 429.766C444.528 405.924 439.183 382.075 433.843 358.233C423.159 358.233 412.474 358.233 401.79 358.233C396.149 381.729 390.508 405.239 384.873 428.741Z" fill="#465B65"/>
<path d="M345.727 208.817C340.8 218.239 335.874 227.669 330.947 237.091C341.004 236.858 351.066 236.617 361.123 236.384C355.993 227.195 350.863 218.006 345.727 208.817Z" fill="#44AD4E"/>
<path d="M367.754 215.348C363.905 222.36 360.05 229.372 356.201 236.384C364.004 236.384 371.8 236.384 379.603 236.384C375.649 229.372 371.702 222.36 367.754 215.348Z" fill="#44AD4E"/>
<path d="M358.35 217.299C360.221 217.299 361.737 215.559 361.737 213.411C361.737 211.264 360.221 209.524 358.35 209.524C356.479 209.524 354.963 211.264 354.963 213.411C354.963 215.559 356.479 217.299 358.35 217.299Z" fill="#44AD4E"/>
<g filter="url(#filter0_d_1121_2379)">
<path d="M93.9167 92.7163C117.521 93.0698 141.126 93.4161 164.731 93.7696C178.531 82.5659 179.264 61.6784 170.895 52.2278C164.047 44.4949 150.48 43.7244 140.104 52.9347C135.861 43.5547 126.303 39.8932 119.166 43.7456C113.531 46.7921 110.021 54.1929 110.624 62.1379C103 56.9708 93.1346 59.982 88.8361 68.4642C84.7224 76.5789 86.8778 87.3513 93.9167 92.7163Z" fill="white"/>
</g>
<path d="M525.373 429.062C517.712 429.062 510.052 429.062 502.397 429.062C499.792 411.829 497.187 394.595 494.582 377.37H532.726C530.275 394.595 527.824 411.829 525.373 429.062Z" fill="#EBEBEB"/>
<path d="M512.501 323.034C512.451 328.137 513.954 333.382 511.121 338.86C509.44 342.119 507.568 343.115 506.065 344.663C502.98 347.844 501.674 356.235 509.28 378.953C512.648 378.776 516.023 378.599 519.392 378.423C520.863 371.948 522.834 362.306 524.448 350.467C525.125 345.469 531.16 301.15 525.365 299.298C522.04 298.23 512.618 310.537 512.501 323.034Z" fill="#44AD4E"/>
<path d="M522.384 309.582C522.889 315.357 522.711 321.238 521.886 326.999C521.461 329.876 520.863 332.732 520.094 335.524C519.305 338.309 518.357 341.023 517.452 343.716C515.592 349.074 514.286 354.637 513.689 360.341C513.086 366.046 513.104 371.828 513.627 377.567L512.79 377.447L514.354 373.128L515.937 368.817C517.008 365.954 518.061 363.077 519.164 360.221C518.277 363.169 517.335 366.095 516.417 369.036L515.013 373.432L513.59 377.815L512.987 379.667L512.747 377.688C512.051 371.905 511.928 366.01 512.494 360.186C512.79 357.274 513.246 354.383 513.892 351.541C514.551 348.707 515.395 345.929 516.337 343.221C517.279 340.514 518.271 337.863 519.084 335.142C519.897 332.421 520.562 329.65 521.054 326.822C522.07 321.182 522.501 315.386 522.384 309.582Z" fill="#144460"/>
<path d="M532.263 380.006C519.854 380.006 507.445 380.006 495.036 380.006C494.882 379.13 494.728 378.246 494.574 377.37C497.062 377.37 499.556 377.37 502.044 377.37C512.267 377.37 522.49 377.37 532.719 377.37C532.571 378.246 532.417 379.123 532.263 380.006Z" fill="#DBDBDB"/>
<path d="M507.249 348.092C507.329 349.491 507.52 350.841 507.784 352.149C507.932 352.799 508.074 353.45 508.283 354.072C508.474 354.701 508.69 355.316 508.948 355.909C509.435 357.118 510.075 358.228 510.771 359.309C511.122 359.847 511.51 360.356 511.929 360.843C512.323 361.359 512.766 361.819 513.21 362.306L513.179 362.363C511.134 360.872 509.453 358.723 508.4 356.213C507.353 353.697 506.941 350.848 507.193 348.085L507.249 348.092Z" fill="#144460"/>
<path d="M510.203 429.062C516.946 417.455 523.684 405.849 530.427 394.249C528.739 405.856 527.058 417.462 525.371 429.062C520.315 429.062 515.259 429.062 510.203 429.062Z" fill="#DBDBDB"/>
<path d="M480.362 400.657C479.884 401.389 479.132 402.492 478.126 403.738C475.522 406.961 474.452 407.127 472.356 409.676C470.578 411.842 468.522 414.339 468.631 417.597C468.696 419.523 469.488 421.043 470.12 421.998C468.616 423.484 468.243 426.027 469.189 427.936C470.21 429.999 472.505 430.816 474.402 429.696C475.468 430.353 478.047 431.725 481.472 431.456C485.092 431.171 487.582 429.222 488.543 428.376C489.947 429.547 494.09 432.662 499.338 431.896C506.373 430.868 513.991 423.066 512.926 413.196C512.02 404.807 505.203 398.331 498.222 398.897C491.655 399.429 487.911 405.944 487.428 406.818C487.368 406.047 487.258 405.155 487.054 404.178C486.84 403.155 486.571 402.275 486.307 401.538C484.943 403.298 483.579 405.058 482.214 406.818C481.602 404.761 480.984 402.709 480.362 400.657Z" fill="#415465"/>
<path d="M471.058 412.533C471.098 413.191 471.282 413.699 471.601 414.082C471.919 414.465 472.348 414.694 472.92 414.734C472.691 414.945 472.373 415.02 472.064 414.968C471.755 414.922 471.461 414.734 471.237 414.477C471.023 414.208 470.879 413.865 470.849 413.511C470.814 413.162 470.879 412.802 471.058 412.533Z" fill="white"/>
<path d="M475.898 416.054C476.337 416.465 476.8 416.797 477.298 416.986C477.791 417.168 478.313 417.203 478.816 417.094C479.319 416.991 479.807 416.746 480.25 416.414C480.698 416.083 481.097 415.654 481.48 415.18C481.067 416.385 480.096 417.397 478.906 417.66C478.318 417.786 477.686 417.711 477.148 417.403C476.61 417.1 476.177 416.62 475.898 416.054Z" fill="white"/>
<path d="M479.617 409.459C479.921 408.847 480.324 408.373 480.757 407.927C481.196 407.493 481.659 407.093 482.226 406.818C481.923 407.43 481.519 407.904 481.086 408.35C480.648 408.784 480.185 409.184 479.617 409.459Z" fill="white"/>
<path d="M469.941 419.575C470.111 419.803 470.32 419.906 470.479 419.837C470.643 419.786 470.773 419.632 470.838 419.449L471.276 419.683C471.231 419.82 471.211 419.986 471.216 420.123C471.231 420.26 471.266 420.386 471.346 420.5C471.505 420.735 471.804 420.883 472.167 420.895C471.878 421.158 471.395 421.175 471.052 420.855C470.882 420.695 470.753 420.449 470.733 420.192C470.703 419.935 470.743 419.695 470.833 419.466L471.271 419.7C471.126 420.02 470.823 420.26 470.494 420.243C470.335 420.232 470.175 420.146 470.081 420.015C469.986 419.877 469.946 419.723 469.941 419.575Z" fill="white"/>
<path d="M473.66 420.015C474.98 419.94 476.289 420.032 477.594 420.169C478.898 420.323 480.193 420.523 481.477 420.895C480.153 420.975 478.848 420.878 477.544 420.741C476.244 420.586 474.945 420.386 473.66 420.015Z" fill="white"/>
<path d="M473.66 420.895C474.8 421.278 475.876 421.821 476.931 422.398C477.982 422.992 479.018 423.627 479.989 424.415C478.848 424.032 477.773 423.489 476.717 422.912C475.667 422.318 474.631 421.689 473.66 420.895Z" fill="white"/>
<path d="M473.293 421.775C474.473 422.632 475.558 423.615 476.619 424.638C477.67 425.673 478.695 426.736 479.621 427.936C478.441 427.084 477.356 426.096 476.295 425.073C475.245 424.044 474.219 422.975 473.293 421.775Z" fill="white"/>
<path d="M470.312 422.215C470.96 422.724 471.572 423.169 472.244 423.461C472.917 423.764 473.624 423.901 474.405 423.975C473.688 424.358 472.817 424.324 472.065 423.992C471.318 423.655 470.666 423.027 470.312 422.215Z" fill="white"/>
<path d="M475.897 424.855C475.334 424.798 474.796 424.935 474.358 425.238C473.92 425.541 473.581 425.998 473.437 426.541C473.278 427.079 473.297 427.684 473.467 428.239C473.636 428.799 473.96 429.302 474.413 429.696C473.865 429.519 473.377 429.033 473.113 428.416C472.834 427.799 472.775 427.044 472.969 426.364C473.163 425.678 473.626 425.113 474.189 424.844C474.736 424.564 475.384 424.57 475.897 424.855Z" fill="white"/>
<path d="M485.578 410.779C485.986 410.127 486.36 409.544 486.659 408.893C486.967 408.247 487.191 407.567 487.44 406.818C487.59 407.607 487.43 408.447 487.097 409.162C486.753 409.87 486.23 410.482 485.578 410.779Z" fill="white"/>
<path d="M506.421 420.895C505.475 422.609 504.155 424.089 502.557 425.038C500.944 425.975 499.036 426.164 497.269 425.655C496.383 425.381 495.551 424.81 494.954 423.987C494.351 423.169 493.998 422.152 493.803 421.135C493.415 419.094 493.574 417.008 493.281 415.065C493.136 414.111 492.808 413.162 492.091 412.728C491.393 412.27 490.497 412.35 489.701 412.653C488.884 412.956 488.162 413.488 487.659 414.271C487.151 415.048 486.838 415.985 486.648 416.951C486.464 417.923 486.399 418.929 486.404 419.935C486.414 420.94 486.489 421.946 486.688 422.929C487.062 424.895 487.833 426.77 488.929 428.37C487.749 426.85 486.912 424.975 486.454 422.998C486.225 422.003 486.125 420.969 486.091 419.946C486.061 418.917 486.106 417.883 486.275 416.865C486.444 415.848 486.758 414.837 487.315 413.974C487.858 413.105 488.69 412.482 489.556 412.156C490.413 411.819 491.443 411.688 492.325 412.242C492.758 412.505 493.111 412.939 493.33 413.425C493.559 413.911 493.689 414.431 493.769 414.951C494.057 417.02 493.883 419.066 494.242 421.015C494.416 421.981 494.739 422.912 495.277 423.655C495.82 424.398 496.557 424.941 497.373 425.221C499.022 425.747 500.879 425.633 502.447 424.775C504.041 423.952 505.385 422.541 506.421 420.895Z" fill="white"/>
<path d="M469.941 417.814C469.06 417.174 468.288 416.403 467.536 415.603C466.794 414.791 466.082 413.945 465.475 412.974C466.356 413.614 467.128 414.385 467.88 415.185C468.616 416.003 469.329 416.848 469.941 417.814Z" fill="#E6E6E6"/>
<path d="M469.569 418.694C468.633 418.54 467.746 418.22 466.875 417.86C466.009 417.483 465.157 417.071 464.355 416.494C465.292 416.648 466.178 416.969 467.049 417.329C467.916 417.706 468.767 418.117 469.569 418.694Z" fill="#E6E6E6"/>
<path d="M469.568 419.574C468.587 419.872 467.597 419.997 466.606 420.077C465.615 420.14 464.619 420.163 463.613 420.015C464.594 419.717 465.585 419.592 466.576 419.512C467.567 419.449 468.563 419.426 469.568 419.574Z" fill="#E6E6E6"/>
<path d="M498.602 401.538C497.387 402.595 496.197 402.155 495.998 402.858C495.779 403.629 496.899 405.264 498.234 405.498C499.573 405.732 500.036 404.332 502.884 402.641C504.946 401.412 505.812 401.48 505.862 400.88C505.967 399.572 501.988 397.257 500.28 398.68C499.429 399.377 499.753 400.537 498.602 401.538Z" fill="white"/>
<path d="M493.522 414.505C493.074 414.311 490.674 417.843 491.615 420.06C492.108 421.221 493.492 421.958 493.946 421.558C494.005 421.501 494.155 421.335 494.065 420.06C493.96 418.506 493.692 417.974 493.572 416.717C493.433 415.185 493.702 414.585 493.522 414.505Z" fill="white"/>
<path d="M503.253 410.996C502.003 411.51 501.023 412.962 501.018 414.517C501.018 417.243 504.035 418.357 504.369 418.477C505.703 418.946 507.451 418.837 507.72 418.037C507.964 417.3 506.719 416.677 506.604 414.957C506.515 413.602 507.237 413.174 506.978 412.316C506.619 411.139 504.767 410.373 503.253 410.996Z" fill="white"/>
<path d="M473.102 410.996C473.506 411.711 474.905 411.688 475.338 410.996C475.482 410.762 475.517 410.482 475.338 409.236C475.089 407.498 474.895 406.155 474.591 406.155C474.382 406.155 474.352 406.79 473.844 408.356C473.257 410.19 472.878 410.59 473.102 410.996Z" fill="white"/>
<path d="M224.564 240.158C226.507 247.15 230.253 257.656 237.923 268.448C239.273 270.341 244.118 276.901 256.908 287.92C269.642 298.89 274.983 300.171 288.312 311.08C296.015 317.39 301.755 323.091 305.22 326.704C316.77 326.755 328.328 326.805 339.879 326.856C329.295 314.418 320.272 303.938 313.136 295.637C310.096 292.104 307.688 289.563 303.981 286.408C298.026 281.335 293.706 279.231 289.17 276.447C281.382 271.663 280.946 269.555 265.561 256.552C260.875 252.587 254.116 246.952 245.742 240.243C242.84 240.704 239.436 241.043 235.623 241.054C231.415 241.071 227.682 240.68 224.564 240.158Z" fill="#FFDDD3"/>
<path d="M214.045 241.95C210.5 262.733 211.207 267.233 213.836 276.832C216 284.733 215.006 282.054 216 289.233C216.446 292.479 218.969 299.548 218 301.233C208.541 304.91 206.387 307.767 195.639 313.51C188.719 317.204 182.336 320.987 176.491 324.736C182.59 332.538 188.682 340.34 194.78 348.142C206.852 342.292 206.883 339.379 214.045 335.233C226.526 328.007 242.13 318.271 248.83 306.403C253.314 298.464 251.904 292.744 251 290.733C250.727 290.124 247.5 282.733 247.5 282.733C246.588 280.976 245.039 276.832 245.039 269.233C242.616 265.165 243.5 269.233 241.5 258.233C237.371 251.274 237.504 245.897 235.222 242.042C232.32 242.503 228.916 242.842 225.104 242.853C220.895 242.856 217.162 242.465 214.045 241.95Z" fill="#FFDDD3"/>
<path d="M229.818 162.419C231.022 163.676 231.218 167.486 231.616 175.115C231.779 178.29 231.765 179.802 230.881 181.474C229.49 184.097 226.924 185.295 225.571 185.805C226.37 187.611 227.168 189.417 227.959 191.216C227.894 191.597 227.728 192.289 227.216 192.965C226.483 193.938 225.513 194.266 225.095 194.405C223.381 194.963 221.841 194.377 221.1 194.091C218.854 193.233 217.624 191.531 217.139 190.765C217.204 188.857 217.034 187.28 216.898 186.127C216.802 185.293 216.623 184.324 216.316 183.269C215.926 181.939 215.435 180.827 214.965 179.948C214.476 180.158 213.534 180.465 212.538 180.157C210.469 179.518 209.046 176.508 210.18 174.343C210.858 173.045 212.346 172.274 213.966 172.232C212.732 168.084 214.407 163.603 218.046 161.3C222.139 158.696 227.318 159.814 229.818 162.419Z" fill="#FFDDD3"/>
<path d="M219.233 166.614C219.835 166.299 220.713 166.09 220.861 166.338C221.022 166.608 220.332 167.425 219.538 167.845C218.936 168.161 218.058 168.369 217.91 168.121C217.742 167.845 218.431 167.035 219.233 166.614Z" fill="#144460" stroke="#144460" stroke-width="0.7" stroke-miterlimit="10"/>
<path d="M232.008 164.867C233.257 163.912 231.885 157.325 227.1 154.95C223.67 153.246 219.189 154.053 215.773 157.021C213.094 156.656 211.145 157.063 210.112 157.703C202 162.733 205.892 169.083 207 177.733C207.447 183.863 203.845 188.304 204.293 194.435C208.775 193.274 213.265 192.12 217.747 190.959C217.899 186.881 217.142 183.845 216.373 181.764C215.149 178.472 213.621 176.818 214.206 174.262C214.689 172.136 216.139 172.058 216.425 169.747C216.777 166.914 215.106 165.656 215.821 163.934C216.664 161.902 219.978 161.231 222.072 161.212C227.773 161.145 230.816 165.781 232.008 164.867Z" fill="#144460" stroke="#144460" stroke-miterlimit="10"/>
<path d="M227.364 165.49C226.686 165.417 225.794 165.547 225.75 165.837C225.699 166.147 226.645 166.646 227.536 166.742C228.215 166.816 229.106 166.685 229.15 166.396C229.201 166.085 228.262 165.586 227.364 165.49Z" fill="#144460" stroke="#144460" stroke-width="0.7" stroke-miterlimit="10"/>
<path d="M220.666 170.473C220.256 170.478 219.957 170.929 219.863 171.254C219.641 172.037 220.315 173.016 220.789 172.983C221.285 172.942 221.792 171.757 221.406 171.013C221.392 170.985 221.112 170.468 220.666 170.473Z" fill="#144460" stroke="#144460" stroke-width="0.7" stroke-miterlimit="10"/>
<path d="M227.036 169.794C226.625 169.785 226.298 170.165 226.184 170.483C225.919 171.238 226.629 172.245 227.11 172.211C227.619 172.171 228.141 170.937 227.727 170.242C227.713 170.214 227.453 169.803 227.036 169.794Z" fill="#144460" stroke="#144460" stroke-width="0.7" stroke-miterlimit="10"/>
<path d="M224.188 174.022C224.123 174.22 224.08 174.481 224.185 174.729C224.451 175.374 225.434 175.314 225.552 175.753C225.608 175.965 225.465 176.311 224.656 176.887" stroke="#144460" stroke-width="0.7" stroke-miterlimit="10"/>
<path d="M221.426 179.651C221.779 179.858 222.802 180.399 224.196 180.271C225.491 180.157 226.364 179.524 226.69 179.264" stroke="#144460" stroke-width="0.7" stroke-miterlimit="10"/>
<path d="M233.553 191.657C233.313 191.557 232.275 191.086 230.798 190.804C229.95 190.645 229.193 190.585 228.571 190.568C227.508 192.684 225.387 194.067 223.038 194.17C219.507 194.317 217.511 191.488 217.391 191.318C215.784 191.686 214.177 192.06 212.577 192.428C210.469 198.872 208.465 205.897 206.699 213.474C203.621 226.707 201.843 233.817 201.602 243.557C201.326 254.872 203.185 263.412 205.015 271.846C207.442 283.025 210.677 292.143 213.386 298.743C237.239 290.365 261.084 281.987 284.937 273.608C272.019 262.716 259.094 251.816 246.176 240.924C245.292 235.965 243.944 228.897 242.021 220.407C240.342 212.984 238.645 206.325 238.631 206.332C238.624 206.332 239.249 208.965 242.021 220.407C258.271 215.077 268.949 207.582 275.346 202.174C279.776 198.433 284.19 193.546 293.109 183.873C300.018 176.389 305.598 170.038 309.458 165.566C303.35 159.884 297.25 154.203 291.142 148.521C288.894 151.452 272.596 172.601 258.447 184.429C258.447 184.429 251.508 191.029 242.852 192.136C240.941 192.375 235.904 192.657 233.553 191.657Z" fill="#44AD4E"/>
<path d="M216.486 191.321C218.763 194.724 222.484 196.239 225.431 195.241C227.33 194.599 228.419 193.069 228.882 192.294" stroke="#144460" stroke-width="0.7" stroke-miterlimit="10"/>
<path d="M237.564 204.631C238.27 206.592 238.954 208.666 239.596 210.846C240.843 215.114 241.738 219.154 242.373 222.875" stroke="#144460" stroke-width="0.7" stroke-miterlimit="10"/>
<path d="M211.432 176.25C212.201 176.713 212.97 177.176 213.739 177.638C213.515 177.086 213.291 176.534 213.068 175.974" stroke="#144460" stroke-miterlimit="10"/>
<path d="M225.566 185.805C224.885 186.056 223.908 186.335 222.705 186.386C220.93 186.456 219.531 186.005 218.74 185.676C219.382 186.216 220.848 187.297 223.011 187.617C224.375 187.821 225.515 187.642 226.237 187.469C226.013 186.909 225.789 186.357 225.566 185.805Z" fill="#144460"/>
<path d="M131.167 227.041C128.995 223.9 127.302 221.221 126.122 219.286C121.03 210.965 119.745 207.235 119.471 203.629C119.304 201.429 119.484 198.907 121.111 197.26C121.339 197.028 122.277 196.077 122.94 196.342C123.88 196.714 123.366 199.214 123.621 202.424C123.769 204.283 124.176 206.469 125.114 208.884C124.481 206.407 124.101 204.299 123.867 202.736C123.393 199.574 123.448 198.302 124.245 197.358C124.309 197.281 125.268 196.189 126.074 196.44C127.027 196.741 126.955 198.692 127.5 203.466C127.915 207.15 128.296 208.976 128.254 208.982C128.219 208.989 128.138 207.9 127.5 203.466C127.184 201.238 126.964 199.844 127.804 198.653C128.06 198.294 128.523 197.639 129.067 197.669C131.21 197.785 132.359 208.343 132.331 208.343C132.324 208.343 132.206 207.756 131.978 206.588C131.867 206.044 131.563 204.445 131.338 202.514C130.929 198.999 131.236 198.216 131.642 197.702C131.912 197.356 132.204 196.976 132.593 196.964C134.814 196.86 137.21 208.64 137.161 208.654C137.14 208.661 136.458 205.965 136.021 203.948C135.238 200.333 135.417 199.796 135.694 199.628C136.304 199.256 137.748 200.457 138.368 201.096C139.664 202.43 141.753 204.963 143.912 209.482C139.65 215.323 135.409 221.179 131.167 227.041Z" fill="#FFDDD3"/>
<path d="M131.167 227.041L127.844 222.022L126.164 219.498C125.623 218.647 125.104 217.79 124.584 216.925C123.559 215.196 122.562 213.439 121.679 211.625C120.802 209.812 120.018 207.928 119.603 205.933C119.388 204.935 119.265 203.924 119.227 202.913C119.189 201.895 119.236 200.863 119.481 199.861C119.725 198.858 120.19 197.877 120.928 197.124C121.291 196.758 121.681 196.392 122.213 196.176C122.468 196.071 122.836 196.009 123.146 196.208C123.457 196.4 123.562 196.719 123.638 196.981C123.853 198.049 123.764 199.045 123.787 200.049C123.79 201.053 123.828 202.042 123.937 203.033C124.155 205.006 124.656 206.945 125.383 208.8L124.817 208.981C124.309 206.993 123.893 204.976 123.577 202.946C123.426 201.928 123.274 200.909 123.244 199.856C123.239 199.333 123.255 198.788 123.42 198.245C123.571 197.701 123.92 197.187 124.325 196.828C124.73 196.483 125.198 196.083 125.92 196.107C126.273 196.13 126.619 196.386 126.78 196.655C126.949 196.931 127.018 197.2 127.095 197.462C127.331 198.509 127.397 199.528 127.506 200.546C127.702 202.582 127.927 204.605 128.222 206.621L128.456 208.135C128.497 208.396 128.539 208.623 128.573 208.92L128.573 208.955C128.559 208.92 128.629 209.019 128.465 209.244C128.394 209.393 128.019 209.398 127.9 209.094L127.886 209.044L127.865 208.924L127.838 208.726L127.79 208.344L127.386 205.31L126.961 202.268C126.845 201.257 126.701 200.139 127.166 199.06C127.28 198.806 127.437 198.545 127.593 198.341C127.75 198.122 127.921 197.904 128.148 197.707C128.368 197.517 128.687 197.307 129.097 197.344C129.507 197.381 129.775 197.622 129.972 197.835C130.366 198.282 130.583 198.778 130.794 199.267C130.989 199.755 131.15 200.258 131.296 200.753C131.854 202.749 132.198 204.779 132.479 206.816L132.575 207.58L132.616 207.962L132.636 208.16L132.643 208.259L132.65 208.337C132.663 208.443 132.549 208.633 132.436 208.668C132.23 208.773 131.794 208.213 131.991 208.426L131.687 206.905C131.507 205.893 131.363 204.875 131.198 203.863C131.025 202.851 130.896 201.833 130.836 200.794C130.803 200.278 130.791 199.754 130.829 199.217C130.874 198.694 130.954 198.101 131.31 197.608C131.481 197.389 131.623 197.185 131.858 196.974C132.064 196.77 132.475 196.581 132.849 196.696C133.527 196.939 133.815 197.449 134.103 197.889C134.651 198.81 135.021 199.773 135.371 200.75C136.048 202.697 136.57 204.685 137.021 206.688C137.132 207.19 137.243 207.692 137.34 208.195L137.409 208.584C137.402 208.57 137.43 208.64 137.387 208.76C137.337 208.873 137.238 208.936 137.174 208.943C137.089 208.964 136.905 208.878 136.871 208.772C136.829 208.673 136.857 208.73 136.843 208.701L136.815 208.602L136.766 208.411L136.578 207.661C136.335 206.663 136.106 205.673 135.884 204.668C135.669 203.663 135.454 202.666 135.303 201.64C135.235 201.124 135.152 200.622 135.211 200.049C135.226 199.908 135.262 199.746 135.383 199.576C135.525 199.407 135.723 199.345 135.893 199.331C136.24 199.319 136.494 199.447 136.741 199.568C137.694 200.088 138.44 200.841 139.116 201.614C139.799 202.388 140.424 203.211 141.008 204.054C142.175 205.749 143.164 207.556 144.047 209.411L144.096 209.511L144.032 209.595L131.167 227.041ZM131.167 227.041L143.75 209.368L143.735 209.551C142.845 207.717 141.848 205.938 140.682 204.279C140.098 203.449 139.472 202.648 138.796 201.896C138.128 201.144 137.395 200.434 136.541 199.97C136.337 199.863 136.103 199.778 135.934 199.791C135.856 199.798 135.792 199.826 135.771 199.854C135.742 199.896 135.706 199.988 135.699 200.094C135.655 200.539 135.73 201.062 135.806 201.55C135.964 202.548 136.179 203.545 136.408 204.536C136.637 205.527 136.88 206.524 137.131 207.508L137.326 208.244L137.374 208.428L137.402 208.513C137.395 208.499 137.423 208.57 137.388 208.485C137.36 208.4 137.177 208.321 137.106 208.363C137.049 208.377 136.943 208.405 136.893 208.511C136.85 208.617 136.878 208.673 136.871 208.638L136.802 208.277C136.698 207.782 136.587 207.287 136.476 206.791C136.004 204.81 135.489 202.836 134.818 200.924C134.476 199.975 134.105 199.027 133.599 198.19C133.354 197.786 133.023 197.375 132.712 197.282C132.472 197.175 132.131 197.555 131.846 197.956C131.597 198.295 131.517 198.761 131.48 199.248C131.449 199.736 131.461 200.238 131.494 200.74C131.554 201.744 131.691 202.755 131.863 203.753C132.029 204.757 132.173 205.762 132.352 206.759L132.657 208.245C132.861 208.465 132.432 207.947 132.227 208.031C132.113 208.045 131.992 208.221 132.013 208.313C132.013 208.355 132.013 208.299 132.013 208.299L132.007 208.207L131.986 208.023L131.945 207.648L131.85 206.891C131.568 204.883 131.216 202.866 130.673 200.927C130.387 199.986 130.066 198.96 129.503 198.293C129.187 197.952 128.996 197.937 128.655 198.225C128.349 198.507 128.029 198.944 127.858 199.339C127.493 200.164 127.588 201.182 127.704 202.18L128.122 205.214L128.519 208.255L128.567 208.637L128.594 208.821L128.608 208.892C128.608 208.892 128.608 208.899 128.608 208.892C128.496 208.601 128.129 208.621 128.057 208.748C127.894 208.952 127.971 209.037 127.95 208.988L127.95 208.974L127.84 208.245L127.613 206.724C127.325 204.694 127.108 202.651 126.911 200.621C126.803 199.61 126.736 198.577 126.521 197.629C126.459 197.403 126.396 197.169 126.291 197.013C126.185 196.85 126.072 196.779 125.91 196.757C125.577 196.727 125.145 196.994 124.804 197.311C124.442 197.627 124.207 197.994 124.07 198.439C123.941 198.876 123.911 199.371 123.916 199.859C123.94 200.848 124.084 201.86 124.228 202.864C124.53 204.873 124.939 206.868 125.44 208.842L124.873 209.024C124.146 207.126 123.652 205.131 123.449 203.101C123.347 202.09 123.316 201.072 123.321 200.061C123.311 199.064 123.393 198.026 123.213 197.113C123.102 196.653 122.855 196.454 122.43 196.629C122.026 196.79 121.643 197.12 121.302 197.458C120.627 198.141 120.184 199.037 119.947 199.976C119.493 201.882 119.647 203.933 120.02 205.871C120.415 207.824 121.157 209.693 121.997 211.513C122.845 213.327 123.807 215.098 124.803 216.841C125.302 217.713 125.814 218.578 126.334 219.435L127.95 221.966L131.167 227.041Z" fill="#144460"/>
<path d="M211.741 192.82C208.97 192.306 206.501 193.992 205.352 194.8C191.8 204.325 183.419 217.196 174.826 220.113C169.074 222.067 159.835 220.726 144.469 206.55C139.962 213.366 135.448 220.175 130.941 226.99C149.082 243.667 170.08 252.53 183.907 246.307C190.704 243.247 199.788 234.734 200.938 233.658C202.465 232.229 208.198 226.755 213.738 218.163C219.72 208.886 219.553 205.161 219.458 204.05C219.062 199.235 216.003 193.609 211.741 192.82Z" fill="#44AD4E"/>
<path d="M292.054 148.816C293.713 146.173 297.7 140.26 302.773 136.783C305.412 134.971 307.381 134.485 309.069 134.895C309.387 134.974 310.687 135.284 310.797 135.984C310.963 136.981 308.561 137.833 305.943 139.709C304.425 140.798 302.77 142.275 301.177 144.325C302.974 142.502 304.579 141.096 305.8 140.083C308.263 138.044 309.384 137.434 310.599 137.623C310.698 137.637 312.133 137.891 312.328 138.712C312.564 139.681 310.855 140.635 307.044 143.559C304.106 145.815 302.735 147.089 302.707 147.053C302.686 147.025 303.573 146.393 307.044 143.559C308.79 142.139 309.869 141.225 311.326 141.33C311.764 141.36 312.57 141.42 312.823 141.902C313.833 143.794 305.388 150.232 305.36 150.21C305.353 150.203 305.8 149.802 306.681 149C307.092 148.628 308.307 147.537 309.84 146.342C312.636 144.177 313.471 144.04 314.122 144.113C314.553 144.164 315.027 144.216 315.245 144.542C316.482 146.392 307.626 154.525 307.59 154.49C307.569 154.475 309.53 152.505 311.036 151.083C313.728 148.55 314.28 148.419 314.569 148.568C315.226 148.903 314.849 150.846 314.69 151.615C314.206 154.009 312.815 158.245 308.128 164.141C302.782 159.042 297.414 153.929 292.054 148.816Z" fill="#FFDDD3"/>
<path d="M292.053 148.815C293.727 146.122 295.577 143.529 297.709 141.17C298.776 139.995 299.912 138.876 301.14 137.856C302.376 136.851 303.674 135.902 305.148 135.244C305.885 134.915 306.665 134.664 307.485 134.597C308.306 134.516 309.133 134.653 309.903 134.947C310.277 135.111 310.701 135.289 310.932 135.75C311.051 135.984 311.001 136.287 310.886 136.492C310.779 136.711 310.616 136.858 310.46 136.999C309.821 137.54 309.126 137.919 308.452 138.34C307.091 139.154 305.778 140.018 304.599 141.052C303.414 142.079 302.341 143.233 301.38 144.473L300.993 144.132C302.492 142.605 304.062 141.149 305.709 139.777C306.539 139.095 307.363 138.406 308.327 137.852C308.809 137.578 309.348 137.341 309.942 137.287C310.551 137.233 311.123 137.384 311.645 137.619C311.914 137.74 312.182 137.904 312.4 138.174C312.625 138.429 312.729 138.854 312.608 139.2C312.5 139.538 312.301 139.778 312.102 139.982C311.91 140.193 311.697 140.376 311.491 140.552C310.653 141.248 309.788 141.866 308.943 142.513C307.24 143.785 305.565 145.092 303.932 146.457L303.322 146.97L303.009 147.23L302.96 147.265L302.931 147.286C302.896 147.307 302.974 147.272 302.839 147.335C302.627 147.363 302.436 147.369 302.388 147.051C302.51 146.634 302.48 146.86 302.502 146.783L302.559 146.733L302.722 146.6L303.971 145.608L306.456 143.598C307.286 142.93 308.082 142.219 309.032 141.623C309.507 141.335 310.046 141.083 310.64 141.001C310.931 140.952 311.249 140.961 311.518 140.983C311.793 141.006 312.083 141.042 312.387 141.143C312.669 141.236 313.043 141.435 313.19 141.839C313.33 142.221 313.258 142.581 313.158 142.856C312.95 143.428 312.623 143.879 312.295 144.323C311.619 145.197 310.859 145.957 310.085 146.703C309.304 147.441 308.494 148.145 307.671 148.834L306.421 149.846L305.783 150.338L305.612 150.465C305.577 150.514 305.336 150.577 305.216 150.484C305.032 150.547 305.142 149.614 305.162 149.947L305.205 149.905L305.283 149.834L305.581 149.56C306.355 148.828 307.186 148.146 308.009 147.457C308.84 146.775 309.635 146.057 310.515 145.432C310.948 145.116 311.395 144.807 311.863 144.519C312.331 144.238 312.82 143.965 313.408 143.819C313.698 143.742 314.045 143.744 314.313 143.788C314.582 143.824 314.886 143.854 315.204 144.025C315.55 144.189 315.746 144.642 315.723 144.974C315.714 145.313 315.614 145.596 315.514 145.864C315.064 146.915 314.388 147.76 313.727 148.613C313.051 149.451 312.333 150.247 311.594 151.028C310.862 151.809 310.102 152.562 309.335 153.308C308.951 153.681 308.56 154.047 308.163 154.406L307.85 154.68C307.85 154.687 307.694 154.793 307.567 154.757C307.433 154.721 307.398 154.7 307.349 154.551C307.293 154.402 307.428 154.219 307.421 154.24L307.442 154.219L307.513 154.142L307.655 153.994L308.224 153.424C309.744 151.925 311.25 150.419 312.932 149.055C313.145 148.886 313.365 148.724 313.599 148.57C313.848 148.437 314.068 148.24 314.513 148.249C314.754 148.278 314.923 148.441 315.021 148.59C315.112 148.746 315.161 148.902 315.189 149.057C315.244 149.355 315.243 149.637 315.228 149.92C315.152 151.022 314.9 152.067 314.605 153.112C313.356 157.263 310.957 160.907 308.311 164.246L308.183 164.408L308.035 164.266L292.053 148.815ZM292.053 148.815L308.269 164.013L308.001 164.033C310.597 160.694 312.933 157.049 314.118 152.99C314.391 151.98 314.629 150.935 314.69 149.911C314.698 149.656 314.692 149.402 314.651 149.182C314.616 148.949 314.49 148.8 314.426 148.8C314.327 148.785 314.065 148.911 313.873 149.045C313.66 149.185 313.455 149.34 313.256 149.501C311.637 150.837 310.138 152.372 308.632 153.864L308.078 154.434L307.943 154.575L307.879 154.638L307.865 154.652C307.843 154.687 307.978 154.518 307.908 154.377C307.838 154.256 307.81 154.228 307.697 154.178C307.584 154.128 307.442 154.219 307.456 154.219L307.74 153.966C308.131 153.607 308.515 153.241 308.898 152.875C309.658 152.136 310.404 151.383 311.129 150.609C311.854 149.835 312.558 149.046 313.219 148.222C313.866 147.398 314.521 146.545 314.907 145.628C314.993 145.402 315.064 145.169 315.065 144.971C315.052 144.78 315.017 144.674 314.869 144.589C314.721 144.503 314.473 144.46 314.219 144.43C313.957 144.394 313.766 144.4 313.54 144.449C312.626 144.699 311.739 145.36 310.895 145.964C310.036 146.575 309.248 147.293 308.431 147.968C307.622 148.65 306.806 149.325 306.031 150.057L305.74 150.324L305.669 150.387L305.641 150.415C305.654 150.748 305.728 149.857 305.572 149.899C305.467 149.8 305.24 149.855 305.219 149.89L305.368 149.778L305.992 149.293L307.228 148.288C308.037 147.605 308.832 146.909 309.599 146.177C310.359 145.446 311.105 144.7 311.738 143.882C312.336 143.122 313.034 141.958 312.172 141.785C311.755 141.663 311.197 141.604 310.751 141.673C310.284 141.734 309.83 141.937 309.397 142.197C308.532 142.73 307.73 143.441 306.892 144.109L304.401 146.112L303.144 147.103L302.995 147.223L302.974 147.237C302.981 147.173 302.938 147.406 303.053 147.004C302.983 146.707 302.828 146.685 302.63 146.712C302.509 146.776 302.601 146.726 302.58 146.733L302.594 146.726L302.623 146.705L302.921 146.459L303.531 145.946C305.171 144.575 306.867 143.267 308.578 141.995C309.429 141.356 310.302 140.738 311.104 140.07C311.481 139.739 311.914 139.366 312.028 139.013C312.15 138.696 311.84 138.362 311.403 138.162C310.958 137.962 310.463 137.833 310.003 137.881C309.536 137.921 309.069 138.117 308.629 138.362C307.743 138.867 306.912 139.542 306.089 140.21C304.449 141.553 302.872 142.981 301.373 144.487L300.986 144.146C301.974 142.885 303.083 141.717 304.304 140.683C305.518 139.642 306.88 138.765 308.249 137.965C308.922 137.558 309.631 137.172 310.207 136.694C310.491 136.448 310.704 136.152 310.585 135.897C310.466 135.628 310.113 135.428 309.774 135.292C309.061 135.014 308.29 134.876 307.526 134.943C306.762 135.004 306.004 135.219 305.289 135.527C303.85 136.143 302.544 137.056 301.302 138.033C300.067 139.018 298.924 140.115 297.836 141.27C295.669 143.6 293.769 146.151 292.053 148.815Z" fill="#144460"/>
<path d="M207.836 193.036C209.821 191.935 211.222 192.452 212.266 193.036C215.809 195.01 214.5 214.233 203 231.733" stroke="#144460" stroke-width="0.7" stroke-miterlimit="10"/>
<path d="M177.212 323.389C172.545 326.259 167.878 329.13 163.204 332.008C166.957 339.149 171.317 346.704 176.397 354.501C179.664 359.52 182.954 364.221 186.203 368.596C188.804 367.427 191.398 366.265 193.999 365.096C194.053 364.142 194.102 362.665 194.017 360.855C193.85 357.15 193.311 355.798 193.52 353.275C193.617 352.081 193.908 350.351 194.822 348.269C188.952 339.98 183.082 331.685 177.212 323.389Z" fill="#44AD4E"/>
<path d="M189.293 352.571C189.936 352.751 190.769 353.051 191.651 353.592C193.062 354.461 193.927 355.525 194.405 356.22" stroke="#144460" stroke-miterlimit="10"/>
<path d="M189.182 355.32C189.825 355.5 190.658 355.8 191.54 356.342C192.951 357.203 193.816 358.274 194.294 358.969" stroke="#144460" stroke-miterlimit="10"/>
<path d="M189.785 358.179C190.428 358.358 191.261 358.659 192.143 359.2C193.554 360.068 194.419 361.132 194.897 361.827" stroke="#144460" stroke-miterlimit="10"/>
<path d="M168.715 331.721C175.61 343.428 182.505 355.136 189.4 366.843" stroke="#144460" stroke-miterlimit="10"/>
<path d="M248.018 285.298C249.241 287.07 251.481 290.862 251.508 295.916C251.521 297.839 251.211 300.898 248.636 305.799C244.349 313.952 237.874 319.409 233.001 322.696" stroke="#144460" stroke-width="0.7" stroke-miterlimit="10"/>
</g>
<g filter="url(#filter1_d_1121_2379)">
<path d="M487.931 78.068C451.86 78.5452 415.79 79.0128 379.719 79.4899C368.219 71.9604 366.111 56.7199 372.727 48.0069C379.653 38.8836 395.764 37.4235 405.664 48.0069C402.031 30.4856 414.039 13.8232 430.131 11.7428C444.906 9.83411 459.624 20.6561 462.409 36.7841C474.06 29.808 489.135 33.8734 495.704 45.3253C501.99 56.2809 498.696 70.8247 487.931 78.068Z" fill="white"/>
</g>
<defs>
<filter id="filter0_d_1121_2379" x="78.7598" y="34.2325" width="113.57" height="75.537" filterUnits="userSpaceOnUse" color-interpolation-filters="sRGB">
<feFlood flood-opacity="0" result="BackgroundImageFix"/>
<feColorMatrix in="SourceAlpha" type="matrix" values="0 0 0 0 0 0 0 0 0 0 0 0 0 0 0 0 0 0 127 0" result="hardAlpha"/>
<feOffset dx="4" dy="4"/>
<feGaussianBlur stdDeviation="6"/>
<feColorMatrix type="matrix" values="0 0 0 0 0.775 0 0 0 0 0.8515 0 0 0 0 1 0 0 0 0.5 0"/>
<feBlend mode="normal" in2="BackgroundImageFix" result="effect1_dropShadow_1121_2379"/>
<feBlend mode="normal" in="SourceGraphic" in2="effect1_dropShadow_1121_2379" result="shape"/>
</filter>
<filter id="filter1_d_1121_2379" x="361" y="3.5249" width="153.877" height="91.9651" filterUnits="userSpaceOnUse" color-interpolation-filters="sRGB">
<feFlood flood-opacity="0" result="BackgroundImageFix"/>
<feColorMatrix in="SourceAlpha" type="matrix" values="0 0 0 0 0 0 0 0 0 0 0 0 0 0 0 0 0 0 127 0" result="hardAlpha"/>
<feOffset dx="4" dy="4"/>
<feGaussianBlur stdDeviation="6"/>
<feColorMatrix type="matrix" values="0 0 0 0 0.775 0 0 0 0 0.8515 0 0 0 0 1 0 0 0 0.5 0"/>
<feBlend mode="normal" in2="BackgroundImageFix" result="effect1_dropShadow_1121_2379"/>
<feBlend mode="normal" in="SourceGraphic" in2="effect1_dropShadow_1121_2379" result="shape"/>
</filter>
<clipPath id="clip0_1121_2379">
<rect width="498" height="396" fill="white" transform="translate(61 42.2329)"/>
</clipPath>
</defs>
</svg>
