<svg width="50" height="66" viewBox="0 0 50 66" fill="none" xmlns="http://www.w3.org/2000/svg">
<rect x="0.5" y="0.5" width="48.64" height="5.6" rx="0.5" stroke="#44AD4E"/>
<rect x="0.5" y="59.9" width="48.64" height="5.6" rx="0.5" stroke="#44AD4E"/>
<mask id="path-3-inside-1_281_478" fill="white">
<path fill-rule="evenodd" clip-rule="evenodd" d="M45.8978 6.43512C45.8978 7.99292 45.78 9.47883 45.5559 10.8901C45.4205 11.7425 45.2462 12.5677 45.0357 13.3651C44.825 14.1632 44.578 14.9334 44.2971 15.6751C42.9193 19.313 40.7273 22.2654 38.0186 24.4611C37.315 25.0832 36.5643 25.6984 35.8207 26.3077L35.8207 26.3077C33.1628 28.4856 30.5961 30.5889 30.5961 32.6701C30.5961 35.6221 32.9293 37.5128 35.4308 39.5398C36.0793 40.0653 36.7391 40.6 37.3725 41.1647C42.3621 44.9644 45.728 51.2373 45.728 59.5649L24.478 59.565L4.41797 59.5649C4.41797 51.7216 7.41938 45.4477 12.0655 41.5183C13.0745 40.5003 14.1974 39.5814 15.2703 38.7035C17.7075 36.7091 19.8868 34.9259 19.8868 32.6701C19.8868 30.034 17.4404 28.2532 14.8255 26.3497L14.6647 26.2326C8.66198 22.5809 4.58779 15.5733 4.58779 6.43508L24.6478 6.43506L45.8978 6.43512Z"/>
</mask>
<path d="M45.5559 10.8901L46.5435 11.047V11.047L45.5559 10.8901ZM45.8978 6.43512H46.8978V5.43513L45.8978 5.43512L45.8978 6.43512ZM45.0357 13.3651L46.0026 13.6204L46.0026 13.6204L45.0357 13.3651ZM44.2971 15.6751L45.2322 16.0293V16.0293L44.2971 15.6751ZM38.0186 24.4611L37.3889 23.6842L37.3723 23.6977L37.3562 23.7119L38.0186 24.4611ZM35.8207 26.3077L35.1869 25.5342L35.1486 25.5655L35.1136 25.6005L35.8207 26.3077ZM35.8207 26.3077L36.4545 27.0811L36.4928 27.0498L36.5278 27.0148L35.8207 26.3077ZM35.4308 39.5398L34.8012 40.3167L35.4308 39.5398ZM37.3725 41.1647L36.7071 41.9111L36.7359 41.9369L36.7667 41.9603L37.3725 41.1647ZM45.728 59.5649L45.728 60.5649L46.728 60.5649V59.5649H45.728ZM24.478 59.565V60.565H24.478L24.478 59.565ZM4.41797 59.5649H3.41797V60.5649H4.41797L4.41797 59.5649ZM12.0655 41.5183L12.7113 42.2818L12.7448 42.2535L12.7758 42.2223L12.0655 41.5183ZM15.2703 38.7035L14.637 37.9296L14.637 37.9296L15.2703 38.7035ZM14.8255 26.3497L14.2369 27.1581L14.237 27.1582L14.8255 26.3497ZM14.6647 26.2326L15.2533 25.4242L15.2198 25.3998L15.1844 25.3783L14.6647 26.2326ZM4.58779 6.43508L4.58779 5.43508L3.58779 5.43508V6.43508H4.58779ZM24.6478 6.43506L24.6478 5.43506H24.6478V6.43506ZM46.5435 11.047C46.7762 9.58182 46.8978 8.04339 46.8978 6.43512H44.8978C44.8978 7.94246 44.7839 9.37584 44.5682 10.7332L46.5435 11.047ZM46.0026 13.6204C46.2218 12.79 46.4029 11.9319 46.5435 11.047L44.5682 10.7332C44.438 11.5531 44.2707 12.3455 44.0689 13.1098L46.0026 13.6204ZM45.2322 16.0293C45.5256 15.2547 45.7832 14.4515 46.0026 13.6204L44.0689 13.1098C43.8669 13.8749 43.6304 14.612 43.3619 15.3209L45.2322 16.0293ZM38.6483 25.2379C41.4953 22.9302 43.7922 19.8316 45.2322 16.0293L43.3619 15.3209C42.0464 18.7943 39.9594 21.6007 37.3889 23.6842L38.6483 25.2379ZM36.4546 27.0811C37.1954 26.4741 37.9609 25.847 38.681 25.2102L37.3562 23.7119C36.6691 24.3195 35.9332 24.9226 35.1869 25.5342L36.4546 27.0811ZM36.5278 27.0148L36.5278 27.0148L35.1136 25.6005L35.1136 25.6006L36.5278 27.0148ZM31.5961 32.6701C31.5961 32.0273 32.007 31.2243 32.9475 30.2024C33.8641 29.2064 35.1098 28.1831 36.4545 27.0811L35.1869 25.5342C33.8738 26.6102 32.5072 27.7275 31.4759 28.848C30.4686 29.9425 29.5961 31.2316 29.5961 32.6701H31.5961ZM36.0603 38.7629C34.7897 37.7332 33.668 36.8192 32.8493 35.8186C32.0527 34.845 31.5961 33.8508 31.5961 32.6701H29.5961C29.5961 34.4414 30.3061 35.8686 31.3014 37.0851C32.2747 38.2745 33.5703 39.3193 34.8012 40.3167L36.0603 38.7629ZM38.038 40.4183C37.3841 39.8353 36.7059 39.2859 36.0603 38.7629L34.8012 40.3167C35.4527 40.8447 36.0941 41.3647 36.7071 41.9111L38.038 40.4183ZM46.728 59.5649C46.728 50.9501 43.2354 44.3725 37.9784 40.3691L36.7667 41.9603C41.4887 45.5562 44.728 51.5246 44.728 59.5649H46.728ZM24.478 60.565L45.728 60.5649L45.728 58.5649L24.478 58.565L24.478 60.565ZM4.41797 60.5649L24.478 60.565V58.565L4.41797 58.5649L4.41797 60.5649ZM11.4197 40.7548C6.52521 44.8943 3.41797 51.4599 3.41797 59.5649H5.41797C5.41797 51.9832 8.31356 46.0012 12.7113 42.2818L11.4197 40.7548ZM14.637 37.9296C13.5708 38.802 12.407 39.7532 11.3552 40.8144L12.7758 42.2223C13.742 41.2473 14.824 40.3608 15.9035 39.4775L14.637 37.9296ZM18.8868 32.6701C18.8868 33.4535 18.5136 34.2365 17.7378 35.1288C16.9554 36.0288 15.8745 36.917 14.637 37.9296L15.9035 39.4775C17.1033 38.4957 18.3307 37.4951 19.2472 36.441C20.1704 35.3791 20.8868 34.1426 20.8868 32.6701H18.8868ZM14.237 27.1582C15.5658 28.1255 16.7441 28.9879 17.6033 29.9149C18.4454 30.8236 18.8868 31.6962 18.8868 32.6701H20.8868C20.8868 31.0079 20.105 29.672 19.0702 28.5555C18.0524 27.4572 16.7001 26.4774 15.414 25.5412L14.237 27.1582ZM14.0761 27.041L14.2369 27.1581L15.4141 25.5413L15.2533 25.4242L14.0761 27.041ZM3.58779 6.43508C3.58779 15.881 7.81034 23.2333 14.145 27.0869L15.1844 25.3783C9.51362 21.9285 5.58779 15.2655 5.58779 6.43508H3.58779ZM24.6478 5.43506L4.58779 5.43508L4.5878 7.43508L24.6478 7.43506V5.43506ZM45.8978 5.43512L24.6478 5.43506L24.6478 7.43506L45.8978 7.43512L45.8978 5.43512Z" fill="#144460" mask="url(#path-3-inside-1_281_478)"/>
<path d="M36.5531 13.37C36.4511 17.0683 35.2187 20.01 33.3462 22.107C33.2058 22.2642 33.0666 22.4206 32.928 22.5762C30.851 24.909 28.9157 27.0827 25.1696 29.7417C21.5673 27.0259 18.6153 24.5317 16.5451 22.1147C14.7083 19.9701 13.5267 16.9843 13.4268 13.37L24.6422 13.37L36.5531 13.37Z" stroke="#144460"/>
<path d="M13.6057 53.5969C13.8257 52.3367 14.8827 51.2391 16.6545 50.3848C16.7969 50.3161 16.9381 50.2478 17.0787 50.1798C19.2006 49.1535 21.1843 48.1941 25.0782 47.0134C28.7878 48.2145 31.8255 49.3159 33.9444 50.3811C35.6719 51.2496 36.6892 52.3601 36.9042 53.5969L25.6062 53.5969L13.6057 53.5969Z" stroke="#144460"/>
</svg>
