<svg width="65" height="67" viewBox="0 0 65 67" fill="none" xmlns="http://www.w3.org/2000/svg">
<path d="M63.56 51.48V8.92004C63.56 8.36776 63.1123 7.92004 62.56 7.92004H2C1.44772 7.92004 1 8.36776 1 8.92004V65C1 65.5523 1.44772 66 2 66H62.56C63.1123 66 63.56 65.5523 63.56 65V58.74" stroke="#144460"/>
<rect x="1.5" y="16.3401" width="61.56" height="4.28" stroke="#44AD4E"/>
<path d="M12.3809 4.53333C12.3809 2.30578 14.1866 0.5 16.4142 0.5C18.6417 0.5 20.4475 2.30578 20.4475 4.53333V11.32C20.4475 11.5961 20.2237 11.82 19.9475 11.82H12.8809C12.6047 11.82 12.3809 11.5961 12.3809 11.32V4.53333Z" fill="white" stroke="#144460"/>
<path d="M44.1133 4.53333C44.1133 2.30578 45.9191 0.5 48.1466 0.5C50.3742 0.5 52.1799 2.30578 52.1799 4.53333V11.32C52.1799 11.5961 51.9561 11.82 51.6799 11.82H44.6133C44.3371 11.82 44.1133 11.5961 44.1133 11.32V4.53333Z" fill="white" stroke="#144460"/>
<path d="M17.7254 46.216C19.7094 46.216 21.3254 45.112 21.3254 42.968V34.84H20.4614V42.968C20.4614 44.568 19.3574 45.4 17.7254 45.4C16.4614 45.4 15.5014 44.92 15.1014 43.912L14.3814 44.344C14.9254 45.576 16.1894 46.216 17.7254 46.216ZM27.9651 46.216C30.4291 46.216 32.0771 44.664 32.0771 42.296V34.84H31.2291V42.296C31.2291 44.12 30.0931 45.4 27.9651 45.4C25.8531 45.4 24.7171 44.12 24.7171 42.296V34.84H23.8691V42.296C23.8691 44.664 25.5011 46.216 27.9651 46.216ZM35.649 45.24V34.84H34.801V46.04H40.929V45.24H35.649ZM49.1301 34.84H48.1701L44.6341 40.616L41.0821 34.84H40.1221L44.2021 41.432V46.04H45.0501V41.432L49.1301 34.84Z" fill="#144460"/>
</svg>
