<svg width="50" height="80" viewBox="0 0 50 80" fill="none" xmlns="http://www.w3.org/2000/svg">
<mask id="path-1-inside-1_281_516" fill="white">
<path fill-rule="evenodd" clip-rule="evenodd" d="M33.0845 7H37.9178V9.65862C39.4452 9.96882 40.868 10.5671 42.1269 11.3943L44.1046 9.41662L47.5222 12.8343L45.557 14.7996C46.4096 16.0768 47.0254 17.5257 47.3416 19.0833H50V23.9167H47.3416C47.0284 25.4596 46.4213 26.8957 45.5811 28.1641L47.522 30.1049L44.1043 33.5226L42.1633 31.5816C40.8954 32.4213 39.46 33.0282 37.9178 33.3414V36H33.0845V33.3419C31.5264 33.0257 30.0772 32.4098 28.7996 31.557L26.834 33.5226L23.4163 30.1049L25.3943 28.1269C24.5669 26.8676 23.9685 25.4445 23.6584 23.9167H21V19.0833H23.6584C23.9715 17.5408 24.5785 16.1049 25.4184 14.8367L23.416 12.8344L26.8337 9.41669L28.8359 11.4189C30.1046 10.5785 31.5412 9.97126 33.0845 9.65814V7Z"/>
</mask>
<path d="M37.9178 7H38.9178V6H37.9178V7ZM33.0845 7V6H32.0845V7H33.0845ZM37.9178 9.65862H36.9178V10.4759L37.7188 10.6386L37.9178 9.65862ZM42.1269 11.3943L41.5777 12.2301L42.2582 12.6772L42.834 12.1014L42.1269 11.3943ZM44.1046 9.41662L44.8117 8.70951L44.1046 8.0024L43.3975 8.70951L44.1046 9.41662ZM47.5222 12.8343L48.2294 13.5414L48.9365 12.8343L48.2294 12.1272L47.5222 12.8343ZM45.557 14.7996L44.8499 14.0925L44.2698 14.6725L44.7253 15.3548L45.557 14.7996ZM47.3416 19.0833L46.3616 19.2823L46.5242 20.0833H47.3416V19.0833ZM50 19.0833H51V18.0833H50V19.0833ZM50 23.9167V24.9167H51V23.9167H50ZM47.3416 23.9167V22.9167H46.5242L46.3616 23.7177L47.3416 23.9167ZM45.5811 28.1641L44.7474 27.6119L44.2961 28.2933L44.874 28.8712L45.5811 28.1641ZM47.522 30.1049L48.2291 30.8121L48.9362 30.1049L48.2291 29.3978L47.522 30.1049ZM44.1043 33.5226L43.3972 34.2297L44.1043 34.9368L44.8114 34.2297L44.1043 33.5226ZM42.1633 31.5816L42.8704 30.8745L42.2925 30.2966L41.6111 30.7479L42.1633 31.5816ZM37.9178 33.3414L37.7188 32.3614L36.9178 32.5241V33.3414H37.9178ZM37.9178 36V37H38.9178V36H37.9178ZM33.0845 36H32.0845V37H33.0845V36ZM33.0845 33.3419H34.0845V32.5244L33.2833 32.3618L33.0845 33.3419ZM28.7996 31.557L29.3548 30.7253L28.6725 30.2698L28.0925 30.8498L28.7996 31.557ZM26.834 33.5226L26.1269 34.2297L26.834 34.9368L27.5411 34.2297L26.834 33.5226ZM23.4163 30.1049L22.7092 29.3978L22.0021 30.1049L22.7092 30.812L23.4163 30.1049ZM25.3943 28.1269L26.1014 28.834L26.6772 28.2582L26.2301 27.5777L25.3943 28.1269ZM23.6584 23.9167L24.6384 23.7177L24.4758 22.9167H23.6584V23.9167ZM21 23.9167H20V24.9167H21V23.9167ZM21 19.0833V18.0833H20V19.0833H21ZM23.6584 19.0833V20.0833H24.4758L24.6384 19.2823L23.6584 19.0833ZM25.4184 14.8367L26.2521 15.3889L26.7034 14.7075L26.1255 14.1296L25.4184 14.8367ZM23.416 12.8344L22.7089 12.1273L22.0018 12.8344L22.7089 13.5415L23.416 12.8344ZM26.8337 9.41669L27.5408 8.70958L26.8337 8.00247L26.1266 8.70958L26.8337 9.41669ZM28.8359 11.4189L28.1288 12.126L28.7067 12.7039L29.3881 12.2526L28.8359 11.4189ZM33.0845 9.65814L33.2833 10.6382L34.0845 10.4756V9.65814H33.0845ZM37.9178 6H33.0845V8H37.9178V6ZM38.9178 9.65862V7H36.9178V9.65862H38.9178ZM42.676 10.5586C41.313 9.66297 39.7718 9.01472 38.1169 8.67862L37.7188 10.6386C39.1187 10.9229 40.4229 11.4713 41.5777 12.2301L42.676 10.5586ZM42.834 12.1014L44.8117 10.1237L43.3975 8.70951L41.4198 10.6872L42.834 12.1014ZM43.3975 10.1237L46.8151 13.5414L48.2294 12.1272L44.8117 8.70951L43.3975 10.1237ZM46.8151 12.1272L44.8499 14.0925L46.2641 15.5067L48.2294 13.5414L46.8151 12.1272ZM48.3216 18.8844C47.979 17.1967 47.3118 15.6272 46.3887 14.2444L44.7253 15.3548C45.5074 16.5265 46.0718 17.8547 46.3616 19.2823L48.3216 18.8844ZM50 18.0833H47.3416V20.0833H50V18.0833ZM51 23.9167V19.0833H49V23.9167H51ZM47.3416 24.9167H50V22.9167H47.3416V24.9167ZM46.4148 28.7163C47.3244 27.343 47.9823 25.7873 48.3216 24.1156L46.3616 23.7177C46.0746 25.1318 45.5181 26.4484 44.7474 27.6119L46.4148 28.7163ZM48.2291 29.3978L46.2882 27.457L44.874 28.8712L46.8149 30.8121L48.2291 29.3978ZM44.8114 34.2297L48.2291 30.8121L46.8149 29.3978L43.3972 32.8155L44.8114 34.2297ZM41.4562 32.2887L43.3972 34.2297L44.8114 32.8155L42.8704 30.8745L41.4562 32.2887ZM38.1169 34.3214C39.7878 33.982 41.3427 33.3245 42.7155 32.4154L41.6111 30.7479C40.4481 31.5181 39.1322 32.0743 37.7188 32.3614L38.1169 34.3214ZM38.9178 36V33.3414H36.9178V36H38.9178ZM33.0845 37H37.9178V35H33.0845V37ZM32.0845 33.3419V36H34.0845V33.3419H32.0845ZM28.2444 32.3887C29.6276 33.3121 31.1975 33.9794 32.8857 34.3219L33.2833 32.3618C31.8554 32.0721 30.5268 31.5076 29.3548 30.7253L28.2444 32.3887ZM27.5411 34.2297L29.5067 32.2641L28.0925 30.8498L26.1269 32.8155L27.5411 34.2297ZM22.7092 30.812L26.1269 34.2297L27.5411 32.8155L24.1234 29.3978L22.7092 30.812ZM24.6872 27.4197L22.7092 29.3978L24.1234 30.812L26.1014 28.834L24.6872 27.4197ZM22.6784 24.1156C23.0144 25.771 23.6627 27.3126 24.5586 28.676L26.2301 27.5777C25.4711 26.4226 24.9226 25.118 24.6384 23.7177L22.6784 24.1156ZM21 24.9167H23.6584V22.9167H21V24.9167ZM20 19.0833V23.9167H22V19.0833H20ZM23.6584 18.0833H21V20.0833H23.6584V18.0833ZM24.5846 14.2845C23.6753 15.6576 23.0176 17.213 22.6784 18.8844L24.6384 19.2823C24.9254 17.8685 25.4817 16.5522 26.2521 15.3889L24.5846 14.2845ZM22.7089 13.5415L24.7113 15.5438L26.1255 14.1296L24.1231 12.1273L22.7089 13.5415ZM26.1266 8.70958L22.7089 12.1273L24.1231 13.5415L27.5408 10.1238L26.1266 8.70958ZM29.543 10.7118L27.5408 8.70958L26.1266 10.1238L28.1288 12.126L29.543 10.7118ZM32.8857 8.6781C31.2135 9.01737 29.6573 9.67534 28.2837 10.5852L29.3881 12.2526C30.5519 11.4817 31.8689 10.9251 33.2833 10.6382L32.8857 8.6781ZM32.0845 7V9.65814H34.0845V7H32.0845Z" fill="#144460" mask="url(#path-1-inside-1_281_516)"/>
<circle cx="35.5" cy="21.5" r="8" stroke="#44AD4E"/>
<mask id="path-4-inside-2_281_516" fill="white">
<path fill-rule="evenodd" clip-rule="evenodd" d="M9.23047 2.71214L12.1222 1.9373L12.5484 3.52782C13.5118 3.46841 14.4589 3.59811 15.3446 3.89099L16.2105 2.39125L18.8032 3.88813L17.943 5.37793C18.6584 6.0056 19.2596 6.77407 19.6987 7.65579L21.2893 7.22958L22.0642 10.1213L20.4735 10.5476C20.5334 11.5208 20.4004 12.4773 20.1012 13.3707L21.5731 14.2205L20.0762 16.8132L18.6043 15.9634C17.9798 16.6697 17.2174 17.2634 16.344 17.6981L16.77 19.2878L13.8782 20.0627L13.4521 18.4723C12.4696 18.5326 11.5041 18.3962 10.6034 18.0907L9.74226 19.5822L7.14958 18.0854L8.01644 16.5839C7.31988 15.9633 6.73402 15.2079 6.30374 14.3438L4.71187 14.7704L3.93702 11.8786L5.52907 11.452C5.4692 10.4793 5.6021 9.52328 5.9011 8.63021L4.3811 7.75264L5.87798 5.15996L7.39765 6.03734C8.02182 5.33124 8.78374 4.73764 9.65669 4.30283L9.23047 2.71214Z"/>
</mask>
<path d="M12.1222 1.9373L13.0881 1.67848L12.8293 0.71255L11.8634 0.97137L12.1222 1.9373ZM9.23047 2.71214L8.97165 1.74621L8.00572 2.00503L8.26454 2.97096L9.23047 2.71214ZM12.5484 3.52782L11.5825 3.78664L11.794 4.57624L12.6099 4.52593L12.5484 3.52782ZM15.3446 3.89099L15.0307 4.84043L15.8036 5.096L16.2106 4.39099L15.3446 3.89099ZM16.2105 2.39125L16.7105 1.52523L15.8445 1.02523L15.3445 1.89125L16.2105 2.39125ZM18.8032 3.88813L19.6692 4.38813L20.1692 3.52211L19.3032 3.02211L18.8032 3.88813ZM17.943 5.37793L17.077 4.87793L16.6668 5.5885L17.2835 6.12962L17.943 5.37793ZM19.6987 7.65579L18.8035 8.10159L19.1679 8.83328L19.9575 8.62172L19.6987 7.65579ZM21.2893 7.22958L22.2552 6.97076L21.9964 6.00483L21.0305 6.26365L21.2893 7.22958ZM22.0642 10.1213L22.323 11.0873L23.2889 10.8284L23.0301 9.86251L22.0642 10.1213ZM20.4735 10.5476L20.2147 9.58162L19.4251 9.79318L19.4754 10.609L20.4735 10.5476ZM20.1012 13.3707L19.153 13.0531L18.8934 13.8281L19.6012 14.2368L20.1012 13.3707ZM21.5731 14.2205L22.4391 14.7205L22.9391 13.8545L22.0731 13.3545L21.5731 14.2205ZM20.0762 16.8132L19.5762 17.6792L20.4422 18.1792L20.9422 17.3132L20.0762 16.8132ZM18.6043 15.9634L19.1043 15.0974L18.3965 14.6887L17.8551 15.301L18.6043 15.9634ZM16.344 17.6981L15.8984 16.8029L15.1665 17.1672L15.3781 17.9569L16.344 17.6981ZM16.77 19.2878L17.0288 20.2538L17.9947 19.9949L17.7359 19.029L16.77 19.2878ZM13.8782 20.0627L12.9123 20.3215L13.1711 21.2874L14.137 21.0286L13.8782 20.0627ZM13.4521 18.4723L14.418 18.2135L14.2065 17.4241L13.3908 17.4742L13.4521 18.4723ZM10.6034 18.0907L10.9246 17.1437L10.1476 16.8802L9.73737 17.5907L10.6034 18.0907ZM9.74226 19.5822L9.24226 20.4483L10.1083 20.9483L10.6083 20.0822L9.74226 19.5822ZM7.14958 18.0854L6.28355 17.5854L5.78355 18.4514L6.64958 18.9514L7.14958 18.0854ZM8.01644 16.5839L8.88246 17.0839L9.28951 16.3789L8.6817 15.8373L8.01644 16.5839ZM6.30374 14.3438L7.1989 13.8981L6.83453 13.1663L6.04492 13.3779L6.30374 14.3438ZM4.71187 14.7704L3.74594 15.0292L4.00476 15.9951L4.97069 15.7363L4.71187 14.7704ZM3.93702 11.8786L3.67821 10.9127L2.71228 11.1715L2.9711 12.1374L3.93702 11.8786ZM5.52907 11.452L5.78789 12.4179L6.5774 12.2064L6.52719 11.3906L5.52907 11.452ZM5.9011 8.63021L6.84936 8.94768L7.1088 8.17277L6.4011 7.76418L5.9011 8.63021ZM4.3811 7.75264L3.51507 7.25264L3.01507 8.11866L3.8811 8.61866L4.3811 7.75264ZM5.87798 5.15996L6.37798 4.29394L5.51196 3.79394L5.01196 4.65996L5.87798 5.15996ZM7.39765 6.03734L6.89765 6.90337L7.60554 7.31207L8.14689 6.69964L7.39765 6.03734ZM9.65669 4.30283L10.1025 5.19793L10.8342 4.83351L10.6226 4.04401L9.65669 4.30283ZM11.8634 0.97137L8.97165 1.74621L9.48928 3.67806L12.381 2.90322L11.8634 0.97137ZM13.5143 3.269L13.0881 1.67848L11.1563 2.19611L11.5825 3.78664L13.5143 3.269ZM15.6586 2.94154C14.6545 2.60955 13.5801 2.4623 12.4869 2.52972L12.6099 4.52593C13.4435 4.47452 14.2632 4.58666 15.0307 4.84043L15.6586 2.94154ZM16.2106 4.39099L17.0765 2.89125L15.3445 1.89125L14.4786 3.39099L16.2106 4.39099ZM15.7105 3.25728L18.3032 4.75416L19.3032 3.02211L16.7105 1.52523L15.7105 3.25728ZM17.9371 3.38813L17.077 4.87793L18.8091 5.87793L19.6692 4.38813L17.9371 3.38813ZM20.5938 7.21C20.0955 6.20941 19.4134 5.33769 18.6025 4.62623L17.2835 6.12962C17.9034 6.67351 18.4236 7.33873 18.8035 8.10159L20.5938 7.21ZM21.0305 6.26365L19.4398 6.68987L19.9575 8.62172L21.5481 8.1955L21.0305 6.26365ZM23.0301 9.86251L22.2552 6.97076L20.3234 7.4884L21.0982 10.3802L23.0301 9.86251ZM20.7323 11.5135L22.323 11.0873L21.8053 9.15541L20.2147 9.58162L20.7323 11.5135ZM21.0494 13.6883C21.3886 12.6756 21.5396 11.5905 21.4716 10.4861L19.4754 10.609C19.5273 11.4511 19.4123 12.2789 19.153 13.0531L21.0494 13.6883ZM22.0731 13.3545L20.6012 12.5047L19.6012 14.2368L21.0731 15.0866L22.0731 13.3545ZM20.9422 17.3132L22.4391 14.7205L20.7071 13.7205L19.2102 16.3132L20.9422 17.3132ZM18.1043 16.8294L19.5762 17.6792L20.5762 15.9472L19.1043 15.0974L18.1043 16.8294ZM16.7896 18.5933C17.7808 18.1 18.6455 17.4264 19.3534 16.6258L17.8551 15.301C17.314 15.913 16.6541 16.4267 15.8984 16.8029L16.7896 18.5933ZM17.7359 19.029L17.3099 17.4393L15.3781 17.9569L15.8041 19.5467L17.7359 19.029ZM14.137 21.0286L17.0288 20.2538L16.5112 18.3219L13.6194 19.0968L14.137 21.0286ZM12.4862 18.7311L12.9123 20.3215L14.8442 19.8039L14.418 18.2135L12.4862 18.7311ZM10.2822 19.0377C11.3031 19.384 12.3984 19.5389 13.5133 19.4704L13.3908 17.4742C12.5407 17.5263 11.7051 17.4085 10.9246 17.1437L10.2822 19.0377ZM10.6083 20.0822L11.4694 18.5907L9.73737 17.5907L8.87623 19.0822L10.6083 20.0822ZM6.64958 18.9514L9.24226 20.4483L10.2423 18.7162L7.64958 17.2193L6.64958 18.9514ZM7.15041 16.0839L6.28355 17.5854L8.0156 18.5854L8.88246 17.0839L7.15041 16.0839ZM5.40858 14.7896C5.89686 15.7701 6.5616 16.627 7.35117 17.3305L8.6817 15.8373C8.07817 15.2995 7.57118 14.6457 7.1989 13.8981L5.40858 14.7896ZM4.97069 15.7363L6.56256 15.3097L6.04492 13.3779L4.45305 13.8044L4.97069 15.7363ZM2.9711 12.1374L3.74594 15.0292L5.67779 14.5115L4.90295 11.6198L2.9711 12.1374ZM5.27025 10.4861L3.67821 10.9127L4.19584 12.8445L5.78789 12.4179L5.27025 10.4861ZM4.95283 8.31274C4.61391 9.32505 4.46302 10.4096 4.53096 11.5135L6.52719 11.3906C6.47539 10.549 6.59029 9.72151 6.84936 8.94768L4.95283 8.31274ZM3.8811 8.61866L5.4011 9.49623L6.4011 7.76418L4.8811 6.88661L3.8811 8.61866ZM5.01196 4.65996L3.51507 7.25264L5.24712 8.25264L6.74401 5.65996L5.01196 4.65996ZM7.89765 5.17132L6.37798 4.29394L5.37798 6.02599L6.89765 6.90337L7.89765 5.17132ZM9.21084 3.40772C8.22022 3.90114 7.35592 4.57467 6.64841 5.37505L8.14689 6.69964C8.68773 6.08782 9.34727 5.57413 10.1025 5.19793L9.21084 3.40772ZM8.26454 2.97096L8.69076 4.56164L10.6226 4.04401L10.1964 2.45332L8.26454 2.97096Z" fill="#144460" mask="url(#path-4-inside-2_281_516)"/>
<circle cx="12.9537" cy="10.9544" r="4.73909" transform="rotate(-15 12.9537 10.9544)" stroke="#44AD4E"/>
<path d="M17.3189 63.1622C21.4494 63.1622 24.7979 59.7652 24.7979 55.5747C24.7979 51.3843 21.4494 47.9873 17.3189 47.9873C13.1883 47.9873 9.83984 51.3843 9.83984 55.5747C9.83984 59.7652 13.1883 63.1622 17.3189 63.1622Z" fill="white" stroke="#144460" stroke-miterlimit="10"/>
<path d="M32.7414 72.5112C32.7905 74.0191 32.8748 76.5738 32.9218 77.995C32.9404 78.56 32.4875 79.0269 31.9222 79.0269C22.0075 79.0269 12.0909 79.0269 2.17611 79.0269C1.63904 79.0269 1.19788 78.6027 1.17671 78.066C1.11964 76.6195 1.06169 75.1721 1.00505 73.726C1.00169 73.6405 1.0089 73.5556 1.02842 73.4722C1.25712 72.495 1.90199 70.3912 3.7881 68.6017C6.40268 66.1194 9.58116 65.9744 10.6357 65.9892C10.7881 65.9913 10.9353 66.0331 11.0694 66.1055C12.9792 67.1364 14.8889 68.1689 16.7986 69.2C17.1092 69.3677 17.4852 69.3592 17.7879 69.1776C19.4965 68.1526 21.2052 67.1262 22.9138 66.1013C23.0302 66.0315 23.158 65.9853 23.293 65.9707C24.2374 65.8686 27.3313 65.7109 29.9533 67.9502C30.4292 68.3562 30.8268 68.7876 31.1589 69.2196" stroke="#144460" stroke-miterlimit="10"/>
</svg>
