<svg width="440" height="448" viewBox="0 0 440 448" fill="none" xmlns="http://www.w3.org/2000/svg">
<g clip-path="url(#clip0)">
<path d="M392.188 344.463C398.086 378.975 403.976 413.488 409.873 448C411.665 448 413.464 448 415.256 448C411.411 413.488 407.567 378.975 403.722 344.463C399.877 344.463 396.033 344.463 392.188 344.463Z" fill="#B3B3B3"/>
<path d="M362.854 344.463C356.956 378.975 351.066 413.488 345.168 448C343.377 448 341.577 448 339.786 448C343.63 413.488 347.475 378.975 351.32 344.463C355.164 344.463 359.009 344.463 362.854 344.463Z" fill="#B3B3B3"/>
<path d="M377.579 204.113C383.715 198.146 396.341 185.868 409.874 188.774C421.361 191.236 427.513 203.354 431.403 211.016C437.639 223.294 439 234.714 439.477 252.814C440.646 296.921 440.969 318.725 427.943 332.576C420.523 340.46 411.834 343.205 401.8 346.38C371.95 355.814 345.407 348.374 333.366 344.08C338.61 305.127 346.076 273.621 352.589 250.513C356.218 237.644 361.77 219.483 377.579 204.113Z" fill="#CCCCCC"/>
<path d="M379.886 184.173C383.723 182.831 387.206 182.716 389.566 182.831C393.388 189.971 396.541 191.374 398.724 191.459C403.346 191.635 405.437 184.97 411.027 184.556C414.672 184.28 417.832 186.75 419.87 188.774C423.445 197.533 427.951 211.821 427.943 229.806C427.928 254.869 419.139 273.659 414.103 282.725C397.248 283.967 377.887 283.2 357.203 278.123C354.304 277.41 351.489 276.643 348.744 275.822C364 224.514 367.937 211.392 367.967 211.399C367.998 211.407 365.322 220.25 361.047 235.174C356.249 251.932 356.234 252.415 355.665 253.581C351.413 262.301 334.442 269.464 277.619 261.634C279.157 248.082 280.695 234.538 282.233 220.986C301.071 219.836 319.91 218.685 338.748 217.535C341.163 216.538 344.969 214.751 349.129 211.783C355.157 207.472 356.541 204.504 366.814 194.143C373.227 187.678 375.933 185.561 379.886 184.173Z" fill="#44AD4E"/>
<path d="M29.2576 264.701H299.918V275.439H29.2576V264.701Z" fill="#CCCCCC"/>
<path d="M391.419 128.953C386.706 132.704 385.637 137.957 384.499 143.525C383.646 147.69 381.754 157.621 387.575 166.533C388.844 168.474 391.327 171.587 396.033 174.203C394.241 177.523 392.442 180.852 390.65 184.173C390.712 184.917 390.935 186.259 391.804 187.624C393.05 189.58 394.856 190.362 395.648 190.692C398.84 192.019 401.869 191.121 403.338 190.692C407.759 189.388 410.373 186.328 411.411 184.94C411.573 181.289 412.134 178.306 412.565 176.12C412.88 174.548 413.357 172.722 414.103 170.751C415.041 168.267 416.156 166.219 417.178 164.616C418.086 165.091 419.839 165.812 421.792 165.383C425.852 164.478 429.02 158.941 427.174 154.646C426.067 152.069 423.345 150.366 420.254 150.044C423.237 142.321 420.708 133.509 414.103 128.57C406.698 123.04 397.025 124.497 391.419 128.953Z" fill="#FFCABA"/>
<path d="M411.027 138.54C409.928 137.842 408.275 137.313 407.952 137.773C407.598 138.272 408.797 139.92 410.258 140.841C411.358 141.539 413.011 142.068 413.334 141.608C413.688 141.117 412.488 139.46 411.027 138.54Z" fill="#144460" stroke="#144460" stroke-miterlimit="10"/>
<path d="M382.577 133.938C380.816 133.118 379.033 131.415 378.733 129.337C378.341 126.645 380.47 123.615 384.115 121.667C381.409 120.095 379.894 117.342 380.271 114.765C380.717 111.735 383.823 110.271 385.653 109.396C389.798 107.425 393.873 108.177 395.649 108.629C400.355 104.265 407.06 103.069 412.565 105.562C419.216 108.576 420.847 115.501 421.023 116.299C421.946 116.329 429.458 116.69 433.326 122.434C437.348 128.409 435.848 137.873 428.713 143.909C429.005 144.215 430.304 145.642 430.25 147.743C430.204 149.484 429.235 151.586 427.175 152.345C424.814 153.212 422.723 151.701 422.561 151.578C420.616 153.748 419.824 154.07 419.486 153.879C418.463 153.304 421.885 148.203 421.023 141.608C420.893 140.603 420.362 137.136 417.948 133.938C414.003 128.723 407.221 127.887 406.414 127.803C395.318 126.606 389.451 137.136 382.577 133.938Z" fill="#144460" stroke="#144460" stroke-miterlimit="10"/>
<path d="M395.649 135.173C396.956 135.135 398.64 135.518 398.686 136.078C398.74 136.684 396.856 137.489 395.134 137.543C393.827 137.581 392.143 137.198 392.097 136.638C392.043 136.032 393.919 135.227 395.649 135.173Z" fill="#144460" stroke="#144460" stroke-miterlimit="10"/>
<path d="M407.768 144.438C408.545 144.491 409.152 146.041 409.114 147.298C409.067 148.97 407.876 150.642 407.084 150.451C406.284 150.259 405.83 148.18 406.199 146.608C406.415 145.711 407.037 144.392 407.768 144.438Z" fill="#144460" stroke="#144460" stroke-miterlimit="10"/>
<path d="M395.803 142.022C396.58 142.075 397.187 143.625 397.149 144.882C397.103 146.554 395.911 148.226 395.119 148.035C394.319 147.843 393.865 145.764 394.234 144.192C394.45 143.295 395.073 141.976 395.803 142.022Z" fill="#144460" stroke="#144460" stroke-miterlimit="10"/>
<path d="M400.646 148.894C400.654 151.509 399.878 152.797 399.109 153.495C398.424 154.116 397.671 154.316 397.571 155.029C397.417 156.072 398.824 157.115 399.109 157.33C399.685 157.759 400.254 157.982 400.646 158.097" stroke="#144460" stroke-miterlimit="10"/>
<path d="M167.824 396.462C160.642 402.513 153.453 408.564 146.271 414.615C129.194 402.168 114.684 392.267 103.996 385.157C84.3117 372.065 71.5246 364.411 73.1085 359.265C74.2619 355.515 82.5201 354.848 87.0798 354.479C96.23 353.735 102.543 356.09 113.861 359.61C119.736 361.436 128.694 364.12 140.058 367.096C149.316 376.882 158.574 386.676 167.824 396.462Z" fill="#44AD4E"/>
<path d="M419.871 189.541C420.932 189.595 422.954 190.17 426.022 195.677C436.141 213.815 430.651 236.977 426.022 255.498C423.93 263.881 422.877 268.068 421.408 270.07C412.112 282.694 391.52 281.29 352.59 278.123C318.58 275.354 292.775 273.138 279.542 271.987C283.771 256.012 288 240.029 292.23 224.054C310.868 224.483 330.237 225.342 350.283 226.738C365.331 227.789 379.94 229.077 394.112 230.573C395.849 227.543 398.571 222.735 401.801 216.768C412.127 197.671 415.357 189.311 419.871 189.541Z" fill="#44AD4E"/>
<path d="M404.875 163.082C404.175 163.419 402.13 164.301 399.493 163.849C397.032 163.427 395.456 162.093 394.879 161.548" stroke="#144460" stroke-miterlimit="10"/>
<path d="M412.564 186.09C407.697 192.241 400.354 194.573 394.879 192.226C391.342 190.707 389.497 187.639 388.728 186.09" stroke="#144460" stroke-miterlimit="10"/>
<path d="M77.9363 229.062C77.1597 230.066 75.9448 231.577 74.307 233.28C70.0779 237.697 68.3402 237.92 64.9338 241.417C62.0504 244.385 58.7056 247.806 58.8901 252.269C58.9978 254.908 60.2819 256.994 61.3045 258.297C58.867 260.33 58.2596 263.812 59.7897 266.435C61.4429 269.265 65.1799 270.377 68.2556 268.843C69.9857 269.748 74.1686 271.627 79.7433 271.251C85.6178 270.86 89.67 268.183 91.231 267.033C93.5147 268.636 100.235 272.908 108.762 271.857C120.189 270.446 132.56 259.755 130.83 246.233C129.354 234.737 118.289 225.864 106.948 226.638C96.2828 227.367 90.2006 236.294 89.4163 237.49C89.324 236.44 89.1395 235.213 88.8089 233.87C88.4628 232.475 88.0246 231.263 87.6016 230.25C85.3872 232.659 83.165 235.074 80.9505 237.483C79.9509 234.691 78.9436 231.876 77.9363 229.062Z" fill="#415465"/>
<path d="M62.8267 245.344C62.8728 246.257 63.1804 246.962 63.7032 247.484C64.2261 248.005 64.9335 248.312 65.8485 248.358C65.4794 248.642 64.9719 248.749 64.4798 248.68C63.9877 248.619 63.5187 248.381 63.1573 248.028C62.8036 247.668 62.5575 247.2 62.5037 246.709C62.4345 246.218 62.5422 245.712 62.8267 245.344Z" fill="#F5FFF9"/>
<path d="M70.6846 250.168C71.392 250.735 72.1455 251.196 72.9529 251.449C73.7602 251.702 74.5984 251.748 75.4211 251.594C76.2439 251.456 77.0281 251.119 77.7586 250.666C78.4891 250.214 79.135 249.623 79.7578 248.956C79.0581 250.628 77.4587 252.001 75.5595 252.346C74.6137 252.507 73.6065 252.407 72.7376 252.001C71.861 251.602 71.1459 250.95 70.6846 250.168Z" fill="#F5FFF9"/>
<path d="M76.7285 241.126C77.236 240.29 77.8973 239.638 78.597 239.024C79.3121 238.426 80.058 237.882 80.9653 237.506C80.4578 238.342 79.7965 238.994 79.0968 239.607C78.3817 240.198 77.6282 240.75 76.7285 241.126Z" fill="#F5FFF9"/>
<path d="M61.0117 254.992C61.2808 255.314 61.6192 255.452 61.8883 255.36C62.1651 255.291 62.3804 255.076 62.4957 254.823L63.1647 255.145C63.0878 255.337 63.057 255.567 63.0724 255.751C63.0955 255.943 63.157 256.119 63.3031 256.273C63.5722 256.603 64.0643 256.787 64.641 256.802C64.172 257.155 63.4184 257.185 62.8571 256.764C62.5803 256.549 62.365 256.211 62.3266 255.851C62.2728 255.49 62.3419 255.161 62.488 254.839L63.157 255.161C62.9186 255.606 62.4342 255.928 61.9191 255.897C61.6653 255.882 61.4116 255.767 61.2578 255.59C61.0963 255.414 61.0194 255.199 61.0117 254.992Z" fill="#F5FFF9"/>
<path d="M67.0557 255.59C69.2009 255.49 71.3231 255.621 73.4376 255.813C75.5522 256.027 77.659 256.296 79.7504 256.794C77.6052 256.894 75.483 256.764 73.3684 256.572C71.2539 256.365 69.1394 256.096 67.0557 255.59Z" fill="#F5FFF9"/>
<path d="M67.0557 256.802C68.9011 257.331 70.6388 258.075 72.3612 258.865C74.0682 259.678 75.7521 260.545 77.3361 261.626C75.4907 261.097 73.753 260.353 72.0306 259.563C70.3236 258.742 68.6396 257.876 67.0557 256.802Z" fill="#F5FFF9"/>
<path d="M66.4482 258.006C68.3552 259.18 70.1083 260.537 71.8307 261.933C73.5377 263.352 75.2062 264.809 76.7287 266.45C74.8218 265.277 73.0686 263.927 71.3462 262.523C69.6392 261.105 67.9707 259.647 66.4482 258.006Z" fill="#F5FFF9"/>
<path d="M61.6113 258.612C62.6571 259.317 63.6567 259.931 64.7562 260.33C65.8481 260.744 67.0015 260.928 68.2625 261.02C67.0938 261.534 65.702 261.495 64.4871 261.043C63.2799 260.583 62.2111 259.732 61.6113 258.612Z" fill="#F5FFF9"/>
<path d="M70.6852 262.224C69.7856 262.148 68.9167 262.324 68.2016 262.73C67.4942 263.137 66.9175 263.758 66.6715 264.502C66.4023 265.238 66.4408 266.09 66.7176 266.856C67.0021 267.631 67.5326 268.321 68.2708 268.858C67.3942 268.613 66.6099 267.961 66.1717 267.102C65.7257 266.251 65.618 265.192 65.9487 264.249C66.2793 263.306 67.0482 262.546 67.9479 262.194C68.8321 261.825 69.8625 261.833 70.6852 262.224Z" fill="#F5FFF9"/>
<path d="M86.4023 242.928C87.0713 242.046 87.6865 241.248 88.1709 240.359C88.6784 239.477 89.0398 238.541 89.4243 237.506C89.6473 238.595 89.3858 239.753 88.8399 240.735C88.2862 241.709 87.4404 242.529 86.4023 242.928Z" fill="#F5FFF9"/>
<path d="M120.257 256.802C118.712 259.164 116.574 261.174 114.006 262.454C112.722 263.083 111.315 263.49 109.877 263.628C108.431 263.743 107.001 263.704 105.571 263.359C104.156 263.007 102.795 262.293 101.795 261.189C100.773 260.107 100.15 258.712 99.8193 257.308C99.135 254.478 99.4041 251.587 98.9427 248.887C98.7198 247.56 98.1815 246.249 97.0435 245.628C95.9286 244.976 94.4984 245.06 93.2143 245.459C92.5684 245.658 91.9225 245.927 91.3612 246.272C91.0997 246.471 90.7999 246.64 90.5615 246.87C90.3308 247.116 90.054 247.315 89.8695 247.591C89.0237 248.634 88.4854 249.923 88.1625 251.265C87.8395 252.607 87.7319 254.003 87.7319 255.398C87.7472 256.794 87.8626 258.19 88.1932 259.548C88.8084 262.278 90.0771 264.855 91.8533 267.048C89.9387 264.962 88.5777 262.385 87.8318 259.64C87.4551 258.259 87.309 256.833 87.2551 255.414C87.2244 253.987 87.2859 252.553 87.5935 251.142C87.8933 249.738 88.4316 248.343 89.362 247.185C89.5696 246.878 89.8695 246.648 90.1232 246.379C90.3923 246.126 90.7153 245.934 91.0152 245.704C91.6534 245.313 92.3223 245.029 93.022 244.807C94.3984 244.37 96.0362 244.224 97.428 245.006C98.1123 245.375 98.6659 245.988 99.0196 246.655C99.381 247.33 99.5809 248.051 99.7193 248.764C100.173 251.633 99.8808 254.47 100.519 257.162C100.819 258.497 101.38 259.77 102.303 260.752C103.21 261.749 104.425 262.439 105.74 262.799C107.055 263.152 108.485 263.229 109.854 263.152C111.23 263.053 112.591 262.692 113.86 262.117C116.397 260.974 118.573 259.057 120.257 256.802Z" fill="#F5FFF9"/>
<path d="M61.0117 252.576C59.5968 251.694 58.3435 250.636 57.1286 249.539C55.9291 248.427 54.7603 247.269 53.7607 245.942C55.1756 246.824 56.4289 247.882 57.6515 248.979C58.8433 250.091 60.0044 251.249 61.0117 252.576Z" fill="#E6E6E6"/>
<path d="M60.4043 253.788C58.8895 253.573 57.4593 253.128 56.0445 252.645C54.6374 252.131 53.2533 251.564 51.9385 250.774C53.4533 250.989 54.8834 251.426 56.2983 251.917C57.7054 252.43 59.0972 252.998 60.4043 253.788Z" fill="#E6E6E6"/>
<path d="M60.4045 254.992C58.8128 255.391 57.2058 255.559 55.591 255.675C53.9763 255.767 52.3616 255.797 50.7314 255.59C52.3231 255.184 53.9302 255.015 55.5449 254.908C57.1596 254.823 58.7744 254.793 60.4045 254.992Z" fill="#E6E6E6"/>
<path d="M107.562 230.266C105.586 231.715 103.656 231.117 103.333 232.076C102.98 233.134 104.794 235.374 106.963 235.696C109.139 236.018 109.892 234.101 114.521 231.777C117.866 230.097 119.281 230.189 119.358 229.369C119.527 227.574 113.068 224.406 110.292 226.354C108.9 227.313 109.431 228.901 107.562 230.266Z" fill="#F5FFF9"/>
<path d="M99.3124 248.044C98.5896 247.775 94.6835 252.614 96.2136 255.652C97.0133 257.247 99.2663 258.251 99.9968 257.699C100.097 257.623 100.335 257.4 100.197 255.652C100.028 253.519 99.5892 252.791 99.397 251.065C99.1663 248.979 99.6046 248.151 99.3124 248.044Z" fill="#F5FFF9"/>
<path d="M115.114 243.235C113.084 243.94 111.484 245.927 111.484 248.059C111.484 251.794 116.382 253.328 116.928 253.489C119.097 254.133 121.934 253.98 122.372 252.883C122.772 251.871 120.742 251.019 120.558 248.665C120.412 246.809 121.588 246.218 121.165 245.045C120.581 243.427 117.574 242.376 115.114 243.235Z" fill="#F5FFF9"/>
<path d="M66.1484 243.235C66.802 244.217 69.078 244.186 69.7777 243.235C70.0161 242.92 70.0699 242.529 69.7777 240.827C69.3702 238.449 69.0549 236.609 68.5705 236.609C68.2322 236.609 68.1784 237.483 67.3633 239.623C66.3945 242.13 65.7793 242.683 66.1484 243.235Z" fill="#F5FFF9"/>
<path d="M423.33 192.226C421.938 189.894 420.4 188.621 418.717 188.391C412.165 187.509 403.453 202.595 392.573 233.64C380.34 233.111 367.775 232.36 354.896 231.34C332.882 229.599 311.844 227.237 291.844 224.437C288.515 237.222 285.178 249.999 281.848 262.784" stroke="#144460" stroke-miterlimit="10"/>
<path d="M221.104 405.435C218.282 414.385 215.467 423.327 212.645 432.278C191.538 430.889 173.969 430.276 161.128 429.977C137.476 429.432 122.566 429.793 121.144 424.608C120.106 420.827 126.726 415.85 130.371 413.104C137.699 407.59 144.296 406.202 155.745 403.134C161.689 401.539 170.701 399.023 181.889 395.465C194.96 398.793 208.032 402.114 221.104 405.435Z" fill="#44AD4E"/>
<path d="M421.791 268.92C420.284 270.408 417.993 272.425 414.871 274.288C407.827 278.491 400.915 279.312 392.572 279.657C384.045 280.01 372.272 279.925 357.971 278.123" stroke="#144460" stroke-miterlimit="10"/>
<path d="M370.273 208.331C368.982 210.441 367.628 213.002 366.429 216.001C364.691 220.349 363.814 224.322 363.353 227.505" stroke="#144460" stroke-miterlimit="10"/>
<path d="M424.482 158.097C422.945 158.864 421.407 159.631 419.869 160.398C420.384 159.378 420.892 158.35 421.407 157.33" stroke="#144460" stroke-miterlimit="10"/>
<path d="M396.034 174.203C397.295 174.786 399.125 175.46 401.416 175.737C404.8 176.143 407.537 175.476 409.105 174.97C407.798 175.905 404.823 177.754 400.647 178.037C398.018 178.221 395.865 177.715 394.496 177.27C395.011 176.25 395.519 175.23 396.034 174.203Z" fill="#144460"/>
<path d="M153.823 385.878C147.671 377.442 141.52 369.005 135.369 360.569C158.198 328.818 183.472 313.318 197.651 306.116C213.383 298.125 227.524 294.213 234.559 292.311C255.267 286.705 267.9 286.659 299.918 283.875C313.466 282.702 333.289 280.792 357.587 277.74C360.916 278.506 365.608 279.112 368.938 279.879C297.682 315.158 225.079 350.599 153.823 385.878Z" fill="#465B65"/>
<path d="M414.488 282.341C414.849 288.523 414.626 301.001 406.799 312.252C402.393 318.579 396.218 323.618 380.655 330.658C361.955 339.118 348.599 341.94 336.827 345.23C314.259 351.542 272.076 363.338 249.17 396.615C244.91 402.804 242.242 408.388 240.712 411.954C224.049 407.352 207.394 402.751 190.732 398.149C176.891 396.615 163.051 395.081 149.21 393.547C189.709 332.154 226.141 312.267 253.014 306.116C263.018 303.831 287.424 299.843 329.138 290.01C345.969 286.045 359.802 282.494 369.122 280.04C374.612 281.375 381.071 282.541 388.345 283.108C398.479 283.906 407.36 283.323 414.488 282.341Z" fill="#465B65"/>
<path d="M60.0146 275.439C51.4566 332.192 42.8985 388.946 34.3404 445.699C32.5488 445.699 30.7495 445.699 28.9579 445.699C35.7244 388.946 42.4832 332.192 49.2498 275.439C52.8406 275.439 56.4238 275.439 60.0146 275.439Z" fill="#B3B3B3"/>
<path d="M395.648 311.868C394.457 312.589 393.134 313.379 391.681 314.215" stroke="#144460" stroke-miterlimit="10"/>
<path d="M383.869 318.533C379.086 321.049 373.496 323.771 367.199 326.448C339.518 338.205 324.032 338.121 302.609 345.621C290.883 349.724 274.821 356.995 256.959 370.93" stroke="#144460" stroke-miterlimit="10" stroke-dasharray="11.61 11.61"/>
<path d="M253.467 373.714C252.298 374.673 251.122 375.662 249.937 376.675" stroke="#144460" stroke-miterlimit="10"/>
<path d="M353.357 282.725C345.207 284.987 333.004 288.147 317.987 291.161C297.188 295.333 288.153 295.77 276.465 298.063C247.323 303.785 226.255 316.217 218.027 321.072C185.386 340.329 165.087 366.612 153.438 385.495" stroke="#144460" stroke-miterlimit="10"/>
<path d="M281.91 227.29C274.598 227.727 268.546 228.326 264.225 228.824C245.632 230.956 238.474 233.426 232.699 237.26C229.17 239.6 225.571 242.844 225.01 247.231C224.933 247.852 224.602 250.383 225.779 251.065C227.455 252.039 230.623 248.327 235.775 244.93C238.766 242.959 242.549 241.003 247.309 239.561C242.818 241.532 239.189 243.442 236.544 244.93C231.2 247.936 229.347 249.524 228.855 251.832C228.816 252.024 228.293 254.754 229.623 255.667C231.207 256.748 234.068 254.348 241.926 249.531C247.985 245.819 251.192 244.24 251.153 244.163C251.123 244.109 249.377 245.26 241.926 249.531C238.182 251.679 235.813 252.998 235.006 255.667C234.76 256.48 234.314 257.945 235.006 258.735C237.713 261.833 255.029 251.119 254.998 251.065C254.99 251.05 253.968 251.571 251.922 252.599C250.969 253.082 248.185 254.501 245.002 256.434C239.212 259.954 238.389 261.35 238.082 262.569C237.874 263.382 237.651 264.264 238.082 264.87C240.55 268.337 261.188 258.06 261.149 257.968C261.134 257.922 256.259 260.077 252.691 261.802C246.309 264.886 245.702 265.791 245.771 266.404C245.925 267.769 249.454 268.528 251.153 268.705C254.706 269.081 260.988 269.249 270.376 267.171C274.221 253.88 278.066 240.581 281.91 227.29Z" fill="#FFCABA"/>
<path d="M281.91 227.29C274.206 227.72 266.509 228.395 258.85 229.392C255.021 229.898 251.199 230.481 247.424 231.301C243.656 232.137 239.896 233.188 236.405 234.906C234.66 235.757 232.991 236.762 231.423 237.897C229.854 239.04 228.362 240.313 227.155 241.854C225.948 243.388 225.048 245.206 224.787 247.177C224.664 248.143 224.587 249.14 224.864 250.137C225.002 250.62 225.31 251.173 225.887 251.364C226.448 251.564 227.001 251.387 227.463 251.203C228.378 250.774 229.154 250.183 229.931 249.608L232.215 247.836C233.737 246.655 235.29 245.528 236.921 244.523C240.181 242.506 243.718 240.949 247.393 239.845L247.201 239.331C243.602 240.903 240.073 242.644 236.644 244.562C234.929 245.528 233.222 246.502 231.615 247.683C230.823 248.281 230.046 248.941 229.447 249.785C228.831 250.613 228.493 251.664 228.432 252.668C228.393 253.174 228.393 253.688 228.478 254.21C228.57 254.724 228.747 255.26 229.147 255.698C229.539 256.135 230.2 256.327 230.746 256.25C231.3 256.188 231.776 255.989 232.245 255.797C234.068 254.938 235.683 253.834 237.359 252.806C240.665 250.705 243.995 248.649 247.393 246.717L249.954 245.283C250.384 245.045 250.8 244.822 251.253 244.554C251.292 244.523 251.299 244.531 251.384 244.454C251.692 244.301 251.276 243.588 250.992 243.856L250.923 243.887C250.838 243.925 250.8 243.956 250.738 243.986L250.415 244.171L249.785 244.546L244.717 247.514L239.619 250.452C238.774 250.958 237.928 251.487 237.136 252.116C236.352 252.745 235.606 253.496 235.121 254.424C234.875 254.877 234.691 255.391 234.56 255.859C234.422 256.342 234.299 256.84 234.268 257.385C234.245 257.906 234.314 258.551 234.76 259.026C235.206 259.509 235.821 259.624 236.344 259.663C237.42 259.724 238.405 259.486 239.366 259.218C240.327 258.942 241.257 258.597 242.172 258.229C245.832 256.725 249.292 254.854 252.691 252.883L253.96 252.131L254.59 251.748L254.906 251.548L255.067 251.449L255.175 251.372C255.275 251.311 255.359 251.088 255.313 250.973C255.236 250.713 254.552 250.766 254.829 250.782L252.184 252.108C250.431 252.99 248.693 253.918 246.993 254.9C245.294 255.882 243.61 256.902 241.98 258.014C241.165 258.574 240.365 259.164 239.619 259.831C238.889 260.499 238.143 261.281 237.836 262.324C237.705 262.815 237.574 263.283 237.536 263.827C237.482 264.349 237.651 265.031 238.166 265.392C239.173 266.028 240.258 265.913 241.234 265.821C243.226 265.568 245.117 264.993 246.986 264.372C250.715 263.106 254.329 261.542 257.881 259.885C258.773 259.463 259.658 259.041 260.534 258.597C260.757 258.482 260.972 258.374 261.195 258.252C261.188 258.252 261.257 258.236 261.334 258.129C261.395 258.021 261.395 257.906 261.365 257.86C261.326 257.791 261.149 257.699 261.049 257.738C260.934 257.768 260.995 257.753 260.957 257.768L260.78 257.837L260.442 257.983L259.096 258.574C257.305 259.371 255.521 260.192 253.752 261.036C251.984 261.879 250.215 262.738 248.493 263.704C247.639 264.203 246.778 264.678 246.017 265.399C245.832 265.583 245.648 265.798 245.556 266.113C245.479 266.442 245.594 266.757 245.755 266.995C246.101 267.462 246.571 267.7 247.024 267.923C248.877 268.728 250.884 268.966 252.845 269.081C254.813 269.203 256.782 269.18 258.75 269.073C262.679 268.843 266.578 268.222 270.415 267.37L270.53 267.347L270.561 267.24L281.91 227.29ZM281.91 227.29L270.192 267.117L270.338 266.979C266.516 267.808 262.641 268.413 258.735 268.628C256.782 268.736 254.829 268.743 252.883 268.621C250.946 268.506 248.985 268.252 247.232 267.485C246.817 267.286 246.386 267.041 246.148 266.711C246.032 266.55 245.986 266.358 246.017 266.205C246.063 266.044 246.194 265.867 246.355 265.706C247.024 265.07 247.893 264.586 248.731 264.103C250.43 263.152 252.199 262.301 253.968 261.465C255.736 260.629 257.52 259.824 259.312 259.026L260.657 258.443L260.995 258.305L261.157 258.244C261.149 258.244 261.234 258.221 261.149 258.244C261.072 258.267 260.926 258.175 260.919 258.098C260.896 258.052 260.849 257.96 260.896 257.868C260.949 257.776 260.988 257.776 260.957 257.791C260.757 257.906 260.534 258.014 260.319 258.121C259.45 258.558 258.566 258.98 257.674 259.394C254.121 261.036 250.515 262.577 246.817 263.819C244.971 264.433 243.087 264.993 241.18 265.223C240.25 265.323 239.212 265.346 238.543 264.901C237.889 264.441 238.189 263.367 238.435 262.485C238.681 261.618 239.343 260.92 240.042 260.276C240.757 259.64 241.542 259.064 242.341 258.52C243.948 257.431 245.625 256.419 247.324 255.445C249.023 254.478 250.746 253.558 252.499 252.684L255.113 251.38C255.405 251.387 254.783 251.41 254.683 251.165C254.613 251.073 254.675 250.866 254.752 250.828C254.783 250.805 254.721 250.851 254.706 250.858L254.56 250.95L254.252 251.142L253.629 251.525L252.368 252.269C248.985 254.217 245.525 256.073 241.926 257.538C241.027 257.899 240.112 258.229 239.189 258.489C238.266 258.742 237.313 258.957 236.421 258.896C235.982 258.865 235.56 258.758 235.329 258.489C235.091 258.244 235.014 257.83 235.037 257.393C235.06 256.955 235.167 256.495 235.306 256.043C235.437 255.575 235.59 255.161 235.813 254.754C236.698 253.136 238.381 252.062 240.027 251.065L245.11 248.12L250.177 245.129L250.807 244.753L251.123 244.569L251.261 244.493C251.269 244.493 251.276 244.485 251.276 244.485C251.023 244.746 250.646 244.032 250.915 243.91C250.953 243.879 250.907 243.91 250.9 243.917C250.507 244.148 250.061 244.393 249.639 244.631L247.07 246.08C243.664 248.036 240.327 250.107 237.028 252.216C235.367 253.251 233.737 254.363 232.007 255.176C231.577 255.352 231.131 255.537 230.708 255.583C230.285 255.629 229.908 255.521 229.631 255.23C229.085 254.624 229.016 253.604 229.078 252.684C229.131 251.74 229.424 250.858 229.969 250.107C230.508 249.347 231.238 248.718 231.999 248.136C233.545 246.985 235.252 246.011 236.944 245.045C240.35 243.127 243.856 241.387 247.432 239.807L247.239 239.293C243.533 240.428 239.95 242.008 236.659 244.063C235.014 245.091 233.445 246.234 231.923 247.422L229.647 249.202C228.885 249.777 228.109 250.36 227.278 250.751C226.863 250.927 226.417 251.042 226.056 250.912C225.679 250.797 225.448 250.413 225.317 249.992C225.071 249.125 225.133 248.159 225.248 247.223C225.494 245.352 226.348 243.603 227.509 242.115C228.678 240.612 230.139 239.354 231.676 238.227C233.23 237.099 234.875 236.102 236.59 235.259C240.035 233.556 243.749 232.482 247.501 231.608C251.261 230.757 255.067 230.136 258.889 229.599C266.524 228.533 274.213 227.789 281.91 227.29Z" fill="#144460"/>
<path d="M234.559 398.149C225.332 394.767 214.236 391.423 201.495 388.946C188.869 386.491 177.42 385.441 167.662 385.111" stroke="#144460" stroke-miterlimit="10"/>
<path d="M268.393 275.439C277.366 332.192 286.332 388.946 295.305 445.699C297.097 445.699 298.896 445.699 300.688 445.699C293.767 388.946 286.847 332.192 279.927 275.439C276.082 275.439 272.237 275.439 268.393 275.439Z" fill="#B3B3B3"/>
<path d="M290.307 231.34C283.556 231.777 277.819 232.36 273.39 232.873C254.713 235.044 247.639 237.475 241.865 241.31C238.335 243.649 234.737 246.893 234.175 251.28C234.098 251.901 233.768 254.432 234.944 255.115C236.621 256.089 239.788 252.377 244.94 248.979C247.931 247.008 251.714 245.052 256.474 243.611C251.984 245.582 248.354 247.491 245.709 248.979C240.365 251.986 238.512 253.573 238.02 255.882C237.982 256.073 237.459 258.804 238.789 259.716C240.373 260.798 243.233 258.397 251.092 253.581C257.151 249.869 260.357 248.289 260.319 248.212C260.288 248.159 258.542 249.309 251.092 253.581C247.347 255.728 244.979 257.047 244.171 259.716C243.925 260.529 243.479 261.994 244.171 262.784C246.878 265.883 264.194 255.168 264.163 255.115C264.156 255.099 263.133 255.621 261.088 256.649C260.134 257.132 257.351 258.551 254.167 260.483C248.377 264.004 247.555 265.399 247.247 266.619C247.039 267.432 246.816 268.314 247.247 268.92C249.715 272.386 270.353 262.109 270.315 262.017C270.299 261.971 265.424 264.126 261.857 265.852C255.474 268.935 254.867 269.84 254.936 270.454C255.09 271.819 258.619 272.578 260.319 272.754C263.871 273.13 270.153 273.299 279.542 271.22C283.133 257.929 286.716 244.638 290.307 231.34Z" fill="#FFCABA"/>
<path d="M290.307 231.34C282.664 231.807 275.044 232.513 267.447 233.525C263.656 234.047 259.865 234.622 256.12 235.466C252.391 236.309 248.662 237.375 245.225 239.116C243.51 239.983 241.865 241.003 240.319 242.138C238.774 243.281 237.32 244.585 236.144 246.134C234.967 247.668 234.145 249.524 233.922 251.464C233.822 252.423 233.76 253.42 234.098 254.409C234.275 254.885 234.691 255.391 235.275 255.483C235.852 255.583 236.351 255.368 236.797 255.161C237.689 254.716 238.458 254.125 239.22 253.55L241.48 251.786C242.987 250.62 244.533 249.501 246.147 248.504C249.385 246.51 252.899 244.976 256.536 243.871L256.343 243.358C252.745 244.93 249.215 246.671 245.786 248.588C244.071 249.554 242.364 250.528 240.757 251.71C239.965 252.308 239.189 252.967 238.589 253.811C237.974 254.639 237.636 255.69 237.574 256.695C237.536 257.201 237.536 257.715 237.62 258.236C237.712 258.75 237.889 259.287 238.289 259.724C238.681 260.161 239.343 260.353 239.888 260.276C240.442 260.215 240.919 260.015 241.388 259.824C243.21 258.965 244.825 257.86 246.501 256.833C249.808 254.731 253.137 252.676 256.536 250.743L259.096 249.309C259.527 249.071 259.942 248.849 260.396 248.58C260.434 248.55 260.442 248.557 260.526 248.481C260.834 248.327 260.419 247.614 260.134 247.882L260.065 247.913C259.98 247.951 259.942 247.982 259.88 248.013L259.557 248.197L258.927 248.573L253.86 251.541L248.762 254.478C247.916 254.984 247.07 255.514 246.278 256.142C245.494 256.771 244.748 257.523 244.264 258.451C244.018 258.903 243.833 259.417 243.702 259.885C243.564 260.368 243.441 260.867 243.41 261.411C243.387 261.933 243.456 262.577 243.902 263.053C244.348 263.536 244.963 263.651 245.486 263.689C246.563 263.75 247.547 263.513 248.508 263.244C249.469 262.968 250.4 262.623 251.315 262.255C254.975 260.752 258.435 258.88 261.833 256.909L263.102 256.158L263.733 255.774L264.048 255.575L264.209 255.475L264.317 255.398C264.417 255.337 264.502 255.115 264.455 255C264.379 254.739 263.694 254.793 263.971 254.808L261.326 256.135C259.573 257.017 257.835 257.945 256.136 258.926C254.436 259.908 252.753 260.928 251.122 262.04C250.307 262.6 249.508 263.191 248.762 263.858C248.031 264.525 247.285 265.307 246.978 266.35C246.847 266.841 246.716 267.309 246.678 267.854C246.624 268.375 246.793 269.058 247.309 269.418C247.801 269.763 248.339 269.848 248.854 269.901C249.369 269.932 249.877 269.901 250.377 269.848C252.368 269.595 254.26 269.019 256.128 268.398C259.857 267.133 263.471 265.568 267.024 263.911C267.916 263.49 268.8 263.068 269.676 262.623C269.899 262.508 270.115 262.401 270.338 262.278C270.33 262.278 270.399 262.263 270.476 262.155C270.538 262.048 270.538 261.933 270.507 261.887C270.468 261.818 270.292 261.726 270.192 261.764C270.076 261.795 270.138 261.779 270.099 261.795L269.923 261.864L269.584 262.01L268.239 262.6C266.447 263.398 264.663 264.218 262.895 265.062C261.126 265.906 259.358 266.765 257.635 267.731C256.782 268.229 255.92 268.705 255.159 269.426C254.975 269.61 254.79 269.825 254.698 270.139C254.621 270.469 254.736 270.783 254.898 271.021C255.244 271.489 255.713 271.727 256.167 271.949C258.02 272.754 260.027 272.992 261.987 273.107C263.956 273.23 265.924 273.207 267.893 273.099C271.822 272.869 275.72 272.248 279.557 271.397L279.672 271.374L279.703 271.259L290.307 231.34ZM290.307 231.34L279.357 271.167L279.503 271.029C275.682 271.857 271.806 272.463 267.9 272.678C265.947 272.785 263.994 272.793 262.049 272.67C260.111 272.555 258.15 272.302 256.397 271.535C255.982 271.335 255.551 271.09 255.313 270.76C255.198 270.599 255.152 270.407 255.182 270.254C255.228 270.093 255.359 269.917 255.521 269.756C256.19 269.119 257.058 268.636 257.897 268.153C259.596 267.202 261.364 266.35 263.133 265.514C264.901 264.678 266.685 263.873 268.477 263.076L269.823 262.493L270.161 262.355L270.322 262.293C270.315 262.293 270.399 262.27 270.315 262.293C270.238 262.316 270.092 262.224 270.084 262.148C270.061 262.102 270.015 262.01 270.061 261.917C270.115 261.825 270.153 261.825 270.122 261.841C269.923 261.956 269.7 262.063 269.484 262.171C268.615 262.608 267.731 263.03 266.839 263.444C263.287 265.085 259.68 266.626 255.982 267.869C254.137 268.482 252.253 269.042 250.346 269.272C249.415 269.372 248.377 269.395 247.708 268.95C247.055 268.49 247.355 267.416 247.601 266.534C247.847 265.668 248.508 264.97 249.208 264.326C249.923 263.689 250.707 263.114 251.507 262.569C253.114 261.48 254.79 260.468 256.489 259.494C258.189 258.528 259.911 257.607 261.664 256.733L264.279 255.429C264.571 255.437 263.948 255.46 263.848 255.214C263.779 255.122 263.84 254.915 263.917 254.877C263.948 254.854 263.887 254.9 263.871 254.908L263.725 255L263.417 255.191L262.795 255.575L261.534 256.319C258.15 258.267 254.69 260.123 251.092 261.588C250.192 261.948 249.277 262.278 248.354 262.539C247.432 262.792 246.478 263.007 245.586 262.945C245.148 262.914 244.725 262.807 244.494 262.539C244.256 262.293 244.179 261.879 244.202 261.442C244.225 261.005 244.333 260.545 244.471 260.092C244.602 259.624 244.756 259.21 244.979 258.804C245.855 257.185 247.547 256.112 249.192 255.115L254.275 252.17L259.342 249.179L259.973 248.803L260.288 248.619L260.426 248.542C260.434 248.542 260.442 248.534 260.442 248.534C260.188 248.795 259.811 248.082 260.08 247.959C260.119 247.928 260.073 247.959 260.065 247.967C259.673 248.197 259.227 248.442 258.804 248.68L256.236 250.13C252.829 252.085 249.492 254.156 246.194 256.265C244.533 257.301 242.903 258.413 241.173 259.226C240.742 259.402 240.296 259.586 239.873 259.632C239.45 259.678 239.073 259.571 238.797 259.279C238.251 258.673 238.181 257.653 238.243 256.733C238.297 255.79 238.589 254.908 239.135 254.156C239.673 253.397 240.404 252.768 241.165 252.185C242.71 251.035 244.417 250.061 246.109 249.094C249.515 247.177 253.022 245.436 256.597 243.856L256.405 243.342C252.729 244.462 249.177 246.034 245.901 248.059C244.264 249.071 242.71 250.206 241.196 251.38L238.943 253.144C238.189 253.719 237.428 254.302 236.605 254.716C236.198 254.915 235.759 255.076 235.375 255.007C234.99 254.946 234.706 254.624 234.544 254.225C234.245 253.397 234.283 252.423 234.383 251.502C234.591 249.646 235.367 247.875 236.505 246.379C237.643 244.876 239.058 243.588 240.58 242.46C242.111 241.333 243.725 240.32 245.417 239.461C248.816 237.744 252.499 236.647 256.205 235.765C259.927 234.891 263.702 234.277 267.485 233.725C275.051 232.659 282.671 231.876 290.307 231.34Z" fill="#144460"/>
<path d="M160.742 409.653C159.866 408.725 158.605 407.59 156.898 406.585C154.168 404.982 151.577 404.468 149.977 404.284" stroke="#144460" stroke-miterlimit="10"/>
<path d="M13.1102 446.466C25.9281 446.466 38.7383 446.466 51.5563 446.466C55.916 421.41 60.2681 396.362 64.6279 371.306H0.8074C4.90575 396.362 9.0118 421.418 13.1102 446.466Z" fill="#F3F3F3"/>
<path d="M34.6402 292.311C34.7171 299.728 32.2104 307.359 36.947 315.319C39.7613 320.052 42.8908 321.501 45.4051 323.756C50.5646 328.38 52.7483 340.582 40.0227 373.607C34.3865 373.354 28.7426 373.093 23.1064 372.84C20.6459 363.422 17.3472 349.402 14.6483 332.192C13.5103 324.922 3.41432 260.483 13.1104 257.799C18.6851 256.257 34.448 274.143 34.6402 292.311Z" fill="#44AD4E"/>
<path d="M18.1085 272.754C17.3472 281.16 17.6855 289.688 19.1388 298.04C19.8616 302.22 20.8535 306.362 22.1607 310.403C23.4909 314.438 25.098 318.364 26.6281 322.283C29.7346 330.091 31.9183 338.213 32.9409 346.526C33.9482 354.84 33.8483 363.276 32.9717 371.628L33.9867 371.498C32.2566 367.303 30.565 363.1 28.7964 358.92C27.0356 354.74 25.2979 350.545 23.4986 346.381C25.0288 350.652 26.6281 354.894 28.1967 359.15C29.7653 363.407 31.4031 367.632 33.0025 371.881L33.733 373.806L34.0175 371.751C35.1862 363.361 35.3092 354.802 34.3635 346.358C33.8714 342.139 33.1255 337.937 32.0413 333.826C30.9418 329.715 29.5192 325.696 27.9506 321.769C26.382 317.843 24.752 313.962 23.4063 309.997C22.0607 306.032 20.9381 301.982 20.1307 297.864C18.5006 289.627 17.824 281.191 18.1085 272.754Z" fill="#144460"/>
<path d="M1.57632 375.141C22.3372 375.141 43.0981 375.141 63.859 375.141C64.1128 373.86 64.3742 372.587 64.6279 371.306C60.4604 371.306 56.2928 371.306 52.1252 371.306C35.0167 371.306 17.9159 371.306 0.8074 371.306C1.06115 372.587 1.32258 373.868 1.57632 375.141Z" fill="#DBDBDB"/>
<path d="M43.4446 328.749C43.3985 329.761 43.3677 330.766 43.2216 331.755C43.1216 332.744 42.9602 333.718 42.7295 334.677C42.2912 336.594 41.6992 338.473 40.7995 340.207C40.0076 342.001 38.8926 343.627 37.6778 345.169C37.0703 345.943 36.4013 346.68 35.6862 347.37C35.0019 348.098 34.2407 348.743 33.4718 349.418L33.5102 349.479C36.9242 347.309 39.7307 344.187 41.4915 340.536C42.3681 338.711 42.9832 336.763 43.3216 334.777C43.6599 332.783 43.7291 330.75 43.5215 328.741L43.4446 328.749Z" fill="#144460"/>
<path d="M38.4844 446.466C27.2043 429.593 15.9319 412.721 4.65179 395.848C7.47374 412.721 10.288 429.593 13.1099 446.466C21.5681 446.466 30.0262 446.466 38.4844 446.466Z" fill="#DBDBDB"/>
<path d="M156.184 412.307C155.307 411.379 154.046 410.243 152.339 409.239C149.609 407.636 147.018 407.122 145.419 406.938" stroke="#144460" stroke-miterlimit="10"/>
<path d="M150.801 413.841C149.924 412.913 148.663 411.777 146.956 410.773C144.226 409.17 141.635 408.656 140.036 408.472" stroke="#144460" stroke-miterlimit="10"/>
<path d="M121.436 370.508C121.251 369.251 120.874 367.594 120.051 365.792C118.737 362.916 116.914 361.014 115.707 359.948" stroke="#144460" stroke-miterlimit="10"/>
<path d="M116.176 370.071C115.991 368.813 115.614 367.157 114.792 365.355C113.477 362.479 111.655 360.577 110.447 359.51" stroke="#144460" stroke-miterlimit="10"/>
<path d="M110.887 368.246C110.702 366.988 110.325 365.332 109.503 363.529C108.188 360.653 106.365 358.751 105.158 357.685" stroke="#144460" stroke-miterlimit="10"/>
<path d="M214.568 425.759C183.811 424.225 153.055 422.691 122.298 421.157" stroke="#144460" stroke-miterlimit="10"/>
<path d="M75.3926 356.734C99.2292 373.093 123.066 389.459 146.902 405.818" stroke="#144460" stroke-miterlimit="10"/>
<path d="M162.281 267.769H240.711C241.987 267.769 243.018 266.742 243.018 265.468C243.018 264.195 241.987 263.168 240.711 263.168H162.281C161.004 263.168 159.974 264.195 159.974 265.468C159.974 266.742 161.004 267.769 162.281 267.769Z" fill="#465B65"/>
<path d="M160.744 267.002C155.877 252.684 151.002 238.372 146.134 224.054C168.433 224.054 190.732 224.054 213.03 224.054C217.644 238.372 222.258 252.684 226.871 267.002C204.826 267.002 182.789 267.002 160.744 267.002Z" fill="#465B65"/>
<path d="M200.633 88.1688L238.649 107.404C242.816 109.513 247.906 107.856 250.021 103.699L267.422 69.4938C269.536 65.337 267.875 60.2598 263.708 58.1507L225.692 38.9159C221.525 36.8068 216.434 38.4634 214.32 42.6202L196.919 76.8257C194.805 80.9825 196.465 86.0597 200.633 88.1688Z" fill="#465B65"/>
<path d="M261.055 66.5181C260.108 66.5181 259.34 65.7524 259.34 64.8078C259.34 63.8633 260.108 63.0975 261.055 63.0975C262.002 63.0975 262.77 63.8633 262.77 64.8078C262.77 65.7524 262.002 66.5181 261.055 66.5181Z" fill="#E0221F"/>
<path d="M256.863 64.3936C255.916 64.3936 255.149 63.6279 255.149 62.6833C255.149 61.7387 255.916 60.973 256.863 60.973C257.81 60.973 258.578 61.7387 258.578 62.6833C258.578 63.6279 257.81 64.3936 256.863 64.3936Z" fill="#E2D11F"/>
<path d="M252.666 62.2692C251.719 62.2692 250.951 61.5035 250.951 60.5589C250.951 59.6143 251.719 58.8486 252.666 58.8486C253.613 58.8486 254.381 59.6143 254.381 60.5589C254.381 61.5035 253.613 62.2692 252.666 62.2692Z" fill="#5ED61F"/>
<path d="M240.272 75.5986C242.025 78.7047 243.786 81.8185 245.539 84.9246C241.987 84.9016 238.442 84.8863 234.889 84.8633" stroke="#F5FFF9" stroke-width="3" stroke-miterlimit="10"/>
<path d="M231.812 65.9889C231.067 72.2701 230.321 78.5514 229.567 84.8326" stroke="#F5FFF9" stroke-width="3" stroke-miterlimit="10"/>
<path d="M227.023 68.8572C223.471 69.279 219.919 69.7008 216.366 70.1226C218.481 72.968 220.595 75.8133 222.71 78.6587" stroke="#F5FFF9" stroke-width="3" stroke-miterlimit="10"/>
<path d="M215.724 160.448L180.676 141.873C177.108 139.986 172.641 141.259 170.703 144.726L160.899 162.212C158.954 165.678 160.269 170.019 163.837 171.914C167.712 174.069 171.595 176.216 175.47 178.371C175.955 181.247 176.439 184.116 176.916 186.992C177.008 187.613 177.531 187.897 177.585 187.927C178.146 188.226 178.7 187.996 178.761 187.966C181.591 186.654 184.421 185.343 187.25 184.031C191.126 186.186 195.009 188.334 198.884 190.489C202.452 192.375 206.919 191.102 208.857 187.636L218.661 170.15C220.598 166.675 219.284 162.334 215.724 160.448ZM197.592 170.909C197.492 170.947 197.354 170.986 197.185 171.016C193.086 172.167 188.988 173.317 184.89 174.467C183.736 170.709 182.583 166.959 181.43 163.201C181.268 162.879 181.184 162.58 181.153 162.311C180.861 159.85 184.167 156.176 187.566 157.027C189.795 157.587 191.595 159.988 191.495 162.772C193.902 161.13 197 161.291 198.684 162.81C201.283 165.157 199.738 170.096 197.592 170.909Z" fill="#FF0000"/>
<path d="M111.974 40.1348C111.566 39.4905 111.866 38.5165 112.235 37.972C112.727 37.2434 113.581 36.9366 114.065 36.7602C114.888 36.4611 115.226 36.5762 115.465 36.2387C115.795 35.7555 115.565 34.8275 115.027 34.5054C114.657 34.283 114.242 34.4057 113.804 34.5054C111.989 34.9349 110.621 35.257 109.967 34.7662C109.406 34.3444 109.982 33.7922 109.267 31.9975C108.975 31.2613 108.721 30.6094 108.129 29.9191C107.799 29.528 107.668 29.482 107.606 29.2289C107.43 28.4773 108.352 27.9941 108.214 27.0661C108.199 26.9511 108.145 26.6136 107.868 26.3759C107.553 26.0998 107.037 26.0538 106.645 26.1995C105.815 26.5216 105.846 27.5876 105.077 27.7564C104.9 27.7947 104.908 27.718 104.377 27.672C103.862 27.6183 103.431 27.6413 103.154 27.672C103.154 27.6643 103.154 27.6567 103.154 27.6413C102.878 27.6106 102.447 27.5876 101.932 27.6413C101.409 27.695 101.409 27.7717 101.232 27.7257C100.456 27.5493 100.494 26.4909 99.6635 26.1688C99.2714 26.0154 98.7562 26.0691 98.4409 26.3452C98.1641 26.5829 98.1103 26.9281 98.0949 27.0354C97.9565 27.9634 98.8869 28.4466 98.7024 29.1982C98.6409 29.459 98.5102 29.505 98.1795 29.8885C97.5951 30.5787 97.3337 31.2306 97.0415 31.9669C96.3341 33.7615 96.9031 34.3137 96.3418 34.7355C95.6882 35.2264 94.3118 34.9042 92.5049 34.4748C92.0743 34.3751 91.6514 34.2523 91.2823 34.4748C90.7441 34.7969 90.5134 35.7249 90.844 36.208C91.0747 36.5455 91.4207 36.4305 92.2434 36.7296C92.7279 36.906 93.5814 37.2127 94.0735 37.9413C94.4425 38.4858 94.7424 39.4599 94.3349 40.1041C93.812 40.9401 92.6356 40.3572 90.9286 41.0551C89.2523 41.7453 87.6991 43.4096 87.9606 44.6904C88.0759 45.2579 88.5526 45.8101 89.0986 45.9022C89.8444 46.0325 90.5441 45.2733 90.844 44.9511C91.5668 44.1689 91.413 43.6934 91.982 43.3943C92.5972 43.0645 93.5045 43.2332 94.0735 43.7394C94.727 44.3223 94.8347 45.4036 94.5117 46.1629C94.0427 47.2673 92.9739 46.9912 91.8052 48.3257C91.6129 48.5481 90.3519 49.9899 90.844 51.2707C91.0132 51.7156 91.4284 52.2524 91.982 52.3061C92.6664 52.3751 93.2123 51.6619 93.3814 51.4395C94.035 50.5882 93.6967 49.9976 94.2503 49.4454C94.7501 48.9546 95.6113 48.8319 96.2572 49.0159C97.2953 49.2997 97.2491 50.2277 98.7024 51.5238C98.9638 51.7616 100.579 53.1957 101.409 52.7356C101.67 52.5899 101.786 52.2908 101.847 52.0453C101.878 47.5741 101.909 43.1028 101.932 38.6316C101.963 38.5549 102.07 38.2788 102.37 38.11C102.732 37.903 103.093 38.0027 103.154 38.0257C103.154 38.0334 103.154 38.041 103.154 38.0564C103.216 38.041 103.577 37.9337 103.939 38.1407C104.239 38.3095 104.346 38.5855 104.377 38.6622C104.408 43.1335 104.439 47.6048 104.462 52.076C104.515 52.3214 104.638 52.6205 104.9 52.7663C105.73 53.2264 107.345 51.7922 107.606 51.5545C109.06 50.2584 109.006 49.3304 110.052 49.0466C110.698 48.8702 111.566 48.9852 112.059 49.4761C112.612 50.0206 112.282 50.6112 112.927 51.4701C113.097 51.6925 113.643 52.4058 114.327 52.3368C114.88 52.2831 115.288 51.7386 115.465 51.3014C115.957 50.0206 114.704 48.5864 114.504 48.3564C113.343 47.0219 112.266 47.2903 111.797 46.1936C111.474 45.4343 111.582 44.3529 112.235 43.7701C112.804 43.2639 113.719 43.0952 114.327 43.4249C114.888 43.7317 114.742 44.1995 115.465 44.9818C115.765 45.3039 116.464 46.0632 117.21 45.9328C117.749 45.8408 118.233 45.2886 118.348 44.7211C118.61 43.4403 117.064 41.776 115.38 41.0858C113.673 40.3879 112.505 40.9707 111.974 40.1348Z" fill="#FF0000"/>
<path d="M147.021 78.9036C139.171 71.4259 131.32 63.9483 123.469 56.4706C125.238 54.0164 129.044 47.9806 128.46 40.1808C127.606 28.9068 117.749 16.1603 103.208 16.1603C89.0986 16.1603 77.9492 28.1552 77.9492 41.2162C77.9492 55.0595 89.26 66.2721 103.208 66.2721C105.753 66.2721 108.429 65.7353 108.429 65.7353C113.581 64.6845 117.233 62.3531 119.202 60.8805C126.906 68.3045 134.611 75.7285 142.316 83.1448C143.092 83.9961 144.415 84.0574 145.276 83.2828L146.891 81.8256C147.736 81.074 147.798 79.7549 147.021 78.9036ZM103.162 60.8652C92.2434 60.8652 83.4009 52.0837 83.4009 41.2622C83.4009 30.4407 92.2511 21.6592 103.162 21.6592C114.081 21.6592 122.923 30.4407 122.923 41.2622C122.923 52.0837 114.081 60.8652 103.162 60.8652Z" fill="#465B65"/>
<g filter="url(#filter0_d)">
<path d="M327.561 41.8019C311.148 42.0175 294.735 42.2289 278.322 42.4445C268.725 35.6088 268.216 22.8646 274.035 17.0985C278.797 12.3803 288.23 11.9102 295.446 17.5297C298.396 11.8067 305.042 9.57271 310.005 11.9232C313.923 13.782 316.368 18.2974 315.948 23.1449C321.25 19.9923 328.109 21.8296 331.098 27.0049C333.955 31.9559 332.456 38.5285 327.561 41.8019Z" fill="white"/>
</g>
<g filter="url(#filter1_d)">
<path d="M11.8293 152.463C31.05 152.71 50.2706 152.953 69.4913 153.201C75.619 149.292 76.7423 141.381 73.2171 136.858C69.5264 132.123 60.9415 131.365 55.6663 136.858C57.6019 127.763 51.2033 119.114 42.6285 118.034C34.7557 117.044 26.913 122.661 25.4287 131.033C19.2207 127.412 11.1874 129.522 7.68729 135.466C4.34261 141.153 6.09769 148.703 11.8293 152.463Z" fill="white"/>
</g>
<path d="M190.725 249.213C190.725 249.451 190.808 249.655 190.97 249.817C191.132 249.979 191.334 250.062 191.576 250.062C191.692 250.062 191.804 250.039 191.91 249.992C192.016 249.946 192.112 249.89 192.195 249.811C192.278 249.738 192.344 249.646 192.39 249.543C192.44 249.441 192.463 249.328 192.463 249.209V245.449C192.463 245.049 192.383 244.673 192.228 244.319C192.069 243.962 191.857 243.658 191.586 243.394C191.311 243.13 190.997 242.918 190.636 242.766C190.275 242.611 189.895 242.535 189.494 242.535C189.077 242.535 188.686 242.614 188.322 242.773C187.955 242.932 187.637 243.15 187.359 243.427C187.081 243.15 186.757 242.932 186.386 242.773C186.016 242.614 185.622 242.535 185.208 242.535C184.804 242.535 184.424 242.608 184.073 242.76C183.719 242.908 183.411 243.117 183.146 243.374C182.878 243.635 182.666 243.939 182.504 244.286C182.345 244.63 182.256 245.003 182.239 245.396C182.239 245.406 182.239 245.42 182.233 245.433C182.229 245.446 182.226 245.459 182.226 245.469V249.219C182.226 249.335 182.249 249.447 182.295 249.553C182.342 249.659 182.401 249.745 182.477 249.821C182.554 249.897 182.646 249.956 182.746 250.002C182.848 250.049 182.957 250.072 183.073 250.072C183.196 250.072 183.308 250.049 183.417 250.002C183.523 249.956 183.619 249.9 183.695 249.821C183.775 249.748 183.841 249.655 183.887 249.553C183.937 249.451 183.96 249.338 183.96 249.219V245.489V245.466V245.443C183.97 245.274 184.01 245.116 184.076 244.97C184.142 244.825 184.235 244.703 184.347 244.6C184.46 244.498 184.596 244.415 184.745 244.356C184.894 244.296 185.052 244.266 185.218 244.266C185.387 244.266 185.552 244.299 185.704 244.362C185.86 244.425 185.996 244.511 186.108 244.62C186.224 244.729 186.313 244.858 186.38 245.01C186.446 245.159 186.479 245.317 186.479 245.482V249.209C186.479 249.447 186.562 249.652 186.724 249.814C186.886 249.976 187.088 250.059 187.329 250.059C187.445 250.059 187.558 250.035 187.664 249.989C187.77 249.943 187.866 249.887 187.948 249.807C188.031 249.735 188.097 249.642 188.144 249.54C188.193 249.437 188.217 249.325 188.217 249.206V245.472V245.449C188.223 245.281 188.256 245.119 188.326 244.973C188.392 244.825 188.481 244.703 188.594 244.597C188.706 244.494 188.839 244.412 188.984 244.352C189.133 244.293 189.295 244.263 189.464 244.263C189.633 244.263 189.799 244.293 189.947 244.356C190.1 244.415 190.232 244.504 190.348 244.613C190.464 244.722 190.553 244.848 190.619 244.993C190.686 245.139 190.719 245.294 190.719 245.459V245.466V249.209H190.725V249.213Z" fill="#44AD4E"/>
</g>
<defs>
<filter id="filter0_d" x="262.256" y="3" width="86.2826" height="55.4445" filterUnits="userSpaceOnUse" color-interpolation-filters="sRGB">
<feFlood flood-opacity="0" result="BackgroundImageFix"/>
<feColorMatrix in="SourceAlpha" type="matrix" values="0 0 0 0 0 0 0 0 0 0 0 0 0 0 0 0 0 0 127 0"/>
<feOffset dx="4" dy="4"/>
<feGaussianBlur stdDeviation="6"/>
<feColorMatrix type="matrix" values="0 0 0 0 0.775 0 0 0 0 0.8515 0 0 0 0 1 0 0 0 0.5 0"/>
<feBlend mode="normal" in2="BackgroundImageFix" result="effect1_dropShadow"/>
<feBlend mode="normal" in="SourceGraphic" in2="effect1_dropShadow" result="shape"/>
</filter>
<filter id="filter1_d" x="-2" y="109.921" width="93.203" height="59.2792" filterUnits="userSpaceOnUse" color-interpolation-filters="sRGB">
<feFlood flood-opacity="0" result="BackgroundImageFix"/>
<feColorMatrix in="SourceAlpha" type="matrix" values="0 0 0 0 0 0 0 0 0 0 0 0 0 0 0 0 0 0 127 0"/>
<feOffset dx="4" dy="4"/>
<feGaussianBlur stdDeviation="6"/>
<feColorMatrix type="matrix" values="0 0 0 0 0.775 0 0 0 0 0.8515 0 0 0 0 1 0 0 0 0.5 0"/>
<feBlend mode="normal" in2="BackgroundImageFix" result="effect1_dropShadow"/>
<feBlend mode="normal" in="SourceGraphic" in2="effect1_dropShadow" result="shape"/>
</filter>
<clipPath id="clip0">
<rect width="440" height="448" fill="white" transform="matrix(-1 0 0 1 440 0)"/>
</clipPath>
</defs>
</svg>
