<svg width="123" height="25" viewBox="0 0 123 25" fill="none" xmlns="http://www.w3.org/2000/svg">
<path d="M42.1 20H45.6L40.84 6H36.76L32 20H35.5L36.2 17.8H41.4L42.1 20ZM37.16 14.8L38.8 9.66L40.44 14.8H37.16ZM51.6408 20.28C53.6008 20.28 55.3008 19.26 56.1608 17.7L53.5408 16.2C53.2208 16.9 52.4808 17.32 51.6008 17.32C50.3008 17.32 49.3408 16.38 49.3408 15C49.3408 13.62 50.3008 12.68 51.6008 12.68C52.4808 12.68 53.2008 13.1 53.5408 13.8L56.1608 12.28C55.3008 10.74 53.5808 9.72 51.6408 9.72C48.6008 9.72 46.3408 12.02 46.3408 15C46.3408 17.98 48.6008 20.28 51.6408 20.28ZM64.8728 10V10.94C64.2128 10.18 63.2328 9.72 61.8928 9.72C59.2728 9.72 57.1128 12.02 57.1128 15C57.1128 17.98 59.2728 20.28 61.8928 20.28C63.2328 20.28 64.2128 19.82 64.8728 19.06V20H67.8728V10H64.8728ZM62.4928 17.44C61.1128 17.44 60.1128 16.5 60.1128 15C60.1128 13.5 61.1128 12.56 62.4928 12.56C63.8728 12.56 64.8728 13.5 64.8728 15C64.8728 16.5 63.8728 17.44 62.4928 17.44ZM77.7737 6V10.94C77.1138 10.18 76.1338 9.72 74.7938 9.72C72.1737 9.72 70.0137 12.02 70.0137 15C70.0137 17.98 72.1737 20.28 74.7938 20.28C76.1338 20.28 77.1138 19.82 77.7737 19.06V20H80.7738V6H77.7737ZM75.3938 17.44C74.0137 17.44 73.0137 16.5 73.0137 15C73.0137 13.5 74.0137 12.56 75.3938 12.56C76.7738 12.56 77.7737 13.5 77.7737 15C77.7737 16.5 76.7738 17.44 75.3938 17.44ZM86.0947 16.2H93.1947C93.2747 15.82 93.3147 15.42 93.3147 15C93.3147 11.98 91.1547 9.72 88.2347 9.72C85.0747 9.72 82.9147 12.02 82.9147 15C82.9147 17.98 85.0347 20.28 88.4547 20.28C90.3547 20.28 91.8347 19.58 92.8147 18.22L90.4147 16.84C90.0147 17.28 89.3147 17.6 88.4947 17.6C87.3947 17.6 86.4747 17.24 86.0947 16.2ZM86.0347 13.96C86.3147 12.94 87.0747 12.38 88.2147 12.38C89.1147 12.38 90.0147 12.8 90.3347 13.96H86.0347ZM106.656 9.72C105.236 9.72 104.316 10.24 103.756 11.04C103.196 10.2 102.316 9.72 101.136 9.72C99.7963 9.72 98.9163 10.24 98.4563 10.92V10H95.4563V20H98.4563V14.36C98.4563 13.18 99.0163 12.48 100.016 12.48C100.976 12.48 101.456 13.12 101.456 14.12V20H104.456V14.36C104.456 13.18 105.016 12.48 106.016 12.48C106.976 12.48 107.456 13.12 107.456 14.12V20H110.456V13.86C110.456 11.36 108.956 9.72 106.656 9.72ZM119.052 10L117.172 16.12L114.952 10H111.652L115.632 19.54C115.192 20.76 114.532 21.2 113.132 21.2V24C115.932 24.14 117.712 22.88 118.832 19.7L122.252 10H119.052Z" fill="#44AD4E"/>
<path d="M21.1446 23.5056L2.89017 23.5056C1.59417 23.5056 0.542969 22.4544 0.542969 21.1584L0.542969 2.90885C0.542969 1.61285 1.59417 0.561646 2.89017 0.561646L21.1398 0.561646C22.4358 0.561646 23.487 1.61285 23.487 2.90885L23.487 21.1584C23.487 22.4544 22.4358 23.5056 21.1446 23.5056Z" fill="#44AD4E"/>
<path d="M7.1616 16.1569C7.1616 16.5025 7.0416 16.8001 6.8064 17.0353C6.5712 17.2705 6.2784 17.3905 5.928 17.3905C5.76 17.3905 5.5968 17.3569 5.4432 17.2897C5.2896 17.2225 5.1504 17.1409 5.0304 17.0257C4.9104 16.9201 4.8144 16.7857 4.7472 16.6369C4.6752 16.4881 4.6416 16.3249 4.6416 16.1521L4.6416 10.6897C4.6416 10.1089 4.7568 9.56166 4.9824 9.04806C5.2128 8.52966 5.52 8.08806 5.9136 7.70406C6.312 7.32005 6.768 7.01285 7.2912 6.79205C7.8144 6.56645 8.3664 6.45605 8.9472 6.45605C9.552 6.45605 10.1184 6.57125 10.6464 6.80165C11.1792 7.03205 11.64 7.34886 12.0432 7.75206C12.4464 7.34886 12.9168 7.03205 13.4544 6.80165C13.992 6.57125 14.5632 6.45605 15.1632 6.45605C15.7488 6.45605 16.3008 6.56165 16.8096 6.78245C17.3232 6.99845 17.7696 7.30085 18.1536 7.67525C18.5424 8.05445 18.8496 8.49606 19.0848 9.00006C19.3152 9.49926 19.4448 10.0417 19.4688 10.6129C19.4688 10.6273 19.4688 10.6465 19.4784 10.6657C19.4832 10.6849 19.488 10.7041 19.488 10.7185V16.1665C19.488 16.3345 19.4544 16.4977 19.3872 16.6513C19.32 16.8049 19.2336 16.9297 19.1232 17.0401C19.0128 17.1505 18.8784 17.2369 18.7344 17.3041C18.5856 17.3713 18.4272 17.4049 18.2592 17.4049C18.0816 17.4049 17.9184 17.3713 17.76 17.3041C17.6064 17.2369 17.4672 17.1553 17.3568 17.0401C17.2416 16.9345 17.1456 16.8001 17.0784 16.6513C17.0064 16.5025 16.9728 16.3393 16.9728 16.1665V10.7473V10.7137V10.6801C16.9584 10.4353 16.9008 10.2049 16.8048 9.99366C16.7088 9.78246 16.5744 9.60486 16.4112 9.45606C16.248 9.30726 16.0512 9.18726 15.8352 9.10086C15.6192 9.01446 15.3888 8.97126 15.1488 8.97126C14.904 8.97126 14.664 9.01926 14.4432 9.11046C14.2176 9.20166 14.0208 9.32646 13.8576 9.48486C13.6896 9.64326 13.56 9.83046 13.464 10.0513C13.368 10.2673 13.32 10.4977 13.32 10.7377L13.32 16.1521C13.32 16.4977 13.2 16.7953 12.9648 17.0305C12.7296 17.2657 12.4368 17.3857 12.0864 17.3857C11.9184 17.3857 11.7552 17.3521 11.6016 17.2849C11.448 17.2177 11.3088 17.1361 11.1888 17.0209C11.0688 16.9153 10.9728 16.7809 10.9056 16.6321C10.8336 16.4833 10.8 16.3201 10.8 16.1473L10.8 10.7233V10.6897C10.7904 10.4449 10.7424 10.2097 10.6416 9.99846C10.5456 9.78246 10.416 9.60486 10.2528 9.45126C10.0896 9.30246 9.8976 9.18246 9.6864 9.09606C9.4704 9.00966 9.2352 8.96646 8.9904 8.96646C8.7456 8.96646 8.5056 9.00966 8.2896 9.10086C8.0688 9.18726 7.8768 9.31686 7.7088 9.47526C7.5408 9.63366 7.4112 9.81606 7.3152 10.0273C7.2192 10.2385 7.1712 10.4641 7.1712 10.7041V10.7137L7.1712 16.1521H7.1616V16.1569Z" fill="#F5FFF9"/>
</svg>
