<svg width="34" height="34" viewBox="0 0 34 34" fill="none" xmlns="http://www.w3.org/2000/svg">
<circle cx="17" cy="17" r="17" fill="#144460"/>
<path d="M26.0824 13.0397C25.9721 12.6461 25.7571 12.2897 25.4604 12.0085C25.1553 11.7186 24.7814 11.5112 24.374 11.406C22.849 11.004 16.7396 11.004 16.7396 11.004C14.1926 10.975 11.6463 11.1025 9.11494 11.3857C8.70747 11.4987 8.33426 11.7107 8.02849 12.0028C7.72805 12.2919 7.51043 12.6483 7.39676 13.0389C7.12368 14.51 6.99099 16.0038 7.0005 17.5C6.99076 18.9949 7.12311 20.4881 7.39676 21.9611C7.508 22.35 7.7248 22.7049 8.02605 22.9915C8.3273 23.2782 8.70245 23.4852 9.11494 23.5948C10.6602 23.996 16.7396 23.996 16.7396 23.996C19.2898 24.025 21.8394 23.8975 24.374 23.6143C24.7814 23.5091 25.1553 23.3017 25.4604 23.0118C25.7609 22.7252 25.9744 22.3687 26.0816 21.9806C26.3618 20.51 26.4981 19.0157 26.4884 17.5187C26.5095 16.0153 26.3734 14.5139 26.0824 13.0389V13.0397ZM14.7973 20.2803V14.7205L19.8804 17.5008L14.7973 20.2803Z" fill="#F5FFF9"/>
</svg>
