<svg width="27" height="28" viewBox="0 0 27 28" fill="none" xmlns="http://www.w3.org/2000/svg">
<path fill-rule="evenodd" clip-rule="evenodd" d="M13.5 27.4302C20.9558 27.4302 27 21.386 27 13.9302C27 6.47433 20.9558 0.430176 13.5 0.430176C6.04416 0.430176 0 6.47433 0 13.9302C0 21.386 6.04416 27.4302 13.5 27.4302ZM20.2186 9.96631C20.4542 10.1896 20.6249 10.4726 20.7125 10.7852V10.7846C20.9436 11.9559 21.0516 13.1482 21.0349 14.3421C21.0426 15.5308 20.9344 16.7176 20.7119 17.8854C20.6267 18.1936 20.4572 18.4767 20.2186 18.7043C19.9763 18.9345 19.6794 19.0991 19.3558 19.1827C17.343 19.4076 15.3184 19.5088 13.2932 19.4858C13.2932 19.4858 8.46543 19.4858 7.23833 19.1673C6.91077 19.0802 6.61286 18.9158 6.37363 18.6882C6.1344 18.4605 5.96223 18.1787 5.87389 17.8699C5.65659 16.7002 5.55148 15.5143 5.55922 14.3272C5.55167 13.139 5.65704 11.9528 5.87389 10.7846C5.96417 10.4744 6.13698 10.1914 6.37556 9.9618C6.61838 9.72985 6.91476 9.5615 7.23833 9.47173C9.24852 9.24687 11.2706 9.14566 13.2932 9.16867C13.2932 9.16867 18.1448 9.16867 19.3558 9.48785C19.6794 9.57145 19.9763 9.73611 20.2186 9.96631ZM11.7508 12.12V16.5351L15.7874 14.3279L11.7508 12.12Z" fill="white"/>
</svg>
